<svg width="461" height="344" viewBox="0 0 461 344" fill="none" xmlns="http://www.w3.org/2000/svg">
<path d="M460.962 301.838H0V302.068H460.962V301.838Z" fill="#E6E6E6"/>
<path d="M321.134 312.127H311.472V312.357H321.134V312.127Z" fill="#E6E6E6"/>
<path d="M96.9673 307.517H59.8599V307.747H96.9673V307.517Z" fill="#E6E6E6"/>
<path d="M169.938 308.199H115.406V308.43H169.938V308.199Z" fill="#E6E6E6"/>
<path d="M247.997 308.199H232.297V308.43H247.997V308.199Z" fill="#E6E6E6"/>
<path d="M411.215 309.656H360.878V309.886H411.215V309.656Z" fill="#E6E6E6"/>
<path d="M210.918 313.454H190.119V313.685H210.918V313.454Z" fill="#E6E6E6"/>
<path d="M429.792 309.776H416.599V310.006H429.792V309.776Z" fill="#E6E6E6"/>
<path d="M218.496 260.72H40.4815C39.087 260.718 37.7504 260.162 36.7651 259.175C35.7799 258.188 35.2266 256.85 35.2266 255.456V5.21809C35.2387 3.83154 35.7974 2.50577 36.7813 1.52875C37.7653 0.551733 39.0949 0.00237523 40.4815 0H218.496C219.892 0 221.231 0.554618 222.218 1.54184C223.205 2.52907 223.76 3.86804 223.76 5.26418V255.456C223.76 256.852 223.205 258.191 222.218 259.178C221.231 260.165 219.892 260.72 218.496 260.72ZM40.4815 0.184386C39.1481 0.186828 37.8701 0.718239 36.9281 1.66198C35.9861 2.60572 35.457 3.88466 35.457 5.21809V255.456C35.457 256.789 35.9861 258.068 36.9281 259.012C37.8701 259.956 39.1481 260.487 40.4815 260.49H218.496C219.83 260.487 221.109 259.956 222.053 259.013C222.996 258.069 223.527 256.79 223.53 255.456V5.21809C223.527 3.88382 222.996 2.60489 222.053 1.66141C221.109 0.717939 219.83 0.186823 218.496 0.184386H40.4815Z" fill="#E6E6E6"/>
<path d="M417.917 260.72H239.894C238.498 260.718 237.161 260.162 236.174 259.176C235.187 258.189 234.632 256.851 234.629 255.456V5.21809C234.644 3.8307 235.205 2.50494 236.19 1.52817C237.175 0.551411 238.506 0.00234933 239.894 0H417.917C419.302 0.00479815 420.629 0.555228 421.611 1.53199C422.593 2.50875 423.151 3.83313 423.163 5.21809V255.456C423.163 256.849 422.611 258.185 421.628 259.172C420.644 260.158 419.31 260.715 417.917 260.72ZM239.894 0.184386C238.559 0.186823 237.28 0.717939 236.337 1.66141C235.393 2.60489 234.862 3.88382 234.86 5.21809V255.456C234.862 256.79 235.393 258.069 236.337 259.013C237.28 259.956 238.559 260.487 239.894 260.49H417.917C419.251 260.487 420.53 259.956 421.474 259.013C422.417 258.069 422.948 256.79 422.951 255.456V5.21809C422.948 3.88382 422.417 2.60489 421.474 1.66141C420.53 0.717939 419.251 0.186823 417.917 0.184386H239.894Z" fill="#E6E6E6"/>
<path d="M382.341 192.267H303.221L308.153 301.838H387.282L382.341 192.267Z" fill="#EBEBEB"/>
<path d="M383.493 192.267H304.364L309.305 301.838H388.425L383.493 192.267Z" fill="#F5F5F5"/>
<path d="M317.409 301.838H338.171V276.964H317.409V301.838Z" fill="#EBEBEB"/>
<path d="M414.036 276.964H338.171V301.838H414.036V276.964Z" fill="#FAFAFA"/>
<g style="mix-blend-mode:multiply" opacity="0.7">
<path d="M317.409 281.86H414.248V280.154H317.409V281.86Z" fill="#E0E0E0"/>
</g>
<path d="M316.266 280.864H338.171V275.932H316.266V280.864Z" fill="#EBEBEB"/>
<path d="M415.179 275.932H338.171V280.864H415.179V275.932Z" fill="#FAFAFA"/>
<path d="M324.305 275.932H355.844V223.447H324.305V275.932Z" fill="#E6E6E6"/>
<path d="M394.362 223.447H355.835V275.932H394.362V223.447Z" fill="#F0F0F0"/>
<g style="mix-blend-mode:multiply" opacity="0.7">
<path d="M324.305 230.877H394.703V228.287H324.305V230.877Z" fill="#E0E0E0"/>
</g>
<path d="M322.553 229.375H355.835V217.454H322.553V229.375Z" fill="#E6E6E6"/>
<path d="M396.105 217.454H355.835V229.375H396.105V217.454Z" fill="#F0F0F0"/>
<path d="M304.152 301.829C315.313 301.829 324.361 292.781 324.361 281.62C324.361 270.459 315.313 261.412 304.152 261.412C292.991 261.412 283.943 270.459 283.943 281.62C283.943 292.781 292.991 301.829 304.152 301.829Z" fill="#E6E6E6"/>
<g style="mix-blend-mode:multiply" opacity="0.7">
<path d="M314.053 269.58C312.846 268.335 312.366 266.814 312.975 266.252C313.583 265.689 315.058 266.196 316.257 267.45C317.455 268.704 317.944 270.216 317.335 270.769C316.727 271.322 315.298 270.824 314.053 269.58Z" fill="#E0E0E0"/>
</g>
<g style="mix-blend-mode:multiply" opacity="0.7">
<path d="M305.654 265.791C303.949 265.459 302.704 264.518 302.889 263.689C303.073 262.859 304.557 262.444 306.263 262.767C307.969 263.089 309.213 264.03 309.029 264.86C308.844 265.689 307.36 266.113 305.654 265.791Z" fill="#E0E0E0"/>
</g>
<g style="mix-blend-mode:multiply" opacity="0.7">
<path d="M307.378 272.89C305.747 272.318 304.705 271.046 305.055 270.032C305.405 269.017 307.019 268.676 308.651 269.257C310.282 269.838 311.333 271.101 310.974 272.115C310.614 273.129 309.01 273.415 307.378 272.89Z" fill="#E0E0E0"/>
</g>
<path d="M289.41 17.2216H57.4722V150.098H289.41V17.2216Z" fill="white"/>
<path d="M292.858 17.2216H59.0859V150.098H292.858V17.2216Z" fill="#F5F5F5"/>
<path d="M288.027 144.668V22.6425L63.9076 22.6425V144.668H288.027Z" fill="#FAFAFA"/>
<path d="M121.942 144.668L150.292 22.6425H187.445L159.096 144.668H121.942Z" fill="white"/>
<path d="M165.117 144.668L193.457 22.6425H210.236L181.896 144.668H165.117Z" fill="white"/>
<path d="M288.027 144.668V22.6425H287.41V144.668H288.027Z" fill="white"/>
<path d="M53.8491 17.0003V69.6606H67.7794C67.7794 69.6606 92.8096 53.3333 98.4979 19.7476C98.635 18.9435 98.5946 18.1191 98.3796 17.3322C98.1646 16.5453 97.7801 15.8149 97.2531 15.1922C96.7262 14.5695 96.0695 14.0696 95.329 13.7274C94.5885 13.3852 93.7821 13.209 92.9664 13.2112H57.6382C56.6333 13.2112 55.6695 13.6104 54.9589 14.321C54.2483 15.0316 53.8491 15.9954 53.8491 17.0003Z" fill="#E6E6E6"/>
<path d="M53.8491 168.408V73.9106H67.7794C67.7794 73.9106 96.0456 130.406 99.3276 168.408H53.8491Z" fill="#E6E6E6"/>
<path d="M67.374 69.6606H54.3565C53.5876 69.6606 52.9644 70.2839 52.9644 71.0527V72.5186C52.9644 73.2874 53.5876 73.9107 54.3565 73.9107H67.374C68.1429 73.9107 68.7661 73.2874 68.7661 72.5186V71.0527C68.7661 70.2839 68.1429 69.6606 67.374 69.6606Z" fill="#F5F5F5"/>
<path d="M296.804 17.0003V69.6606H282.874C282.874 69.6606 257.844 53.3333 252.156 19.7476C252.017 18.9432 252.056 18.1182 252.27 17.3306C252.485 16.5431 252.869 15.812 253.396 15.1889C253.924 14.5658 254.581 14.0659 255.322 13.7242C256.064 13.3825 256.871 13.2074 257.687 13.2112H293.052C294.051 13.2209 295.005 13.6244 295.708 14.3339C296.41 15.0435 296.804 16.0017 296.804 17.0003Z" fill="#E6E6E6"/>
<path d="M296.804 168.408V73.9106H282.873C282.873 73.9106 254.598 130.406 251.316 168.408H296.804Z" fill="#E6E6E6"/>
<path d="M283.27 73.9014H296.288C297.057 73.9014 297.68 73.2782 297.68 72.5093V71.0435C297.68 70.2746 297.057 69.6514 296.288 69.6514H283.27C282.502 69.6514 281.878 70.2746 281.878 71.0435V72.5093C281.878 73.2782 282.502 73.9014 283.27 73.9014Z" fill="#F5F5F5"/>
<path d="M232.297 215.832H212.632V301.829H232.297V215.832Z" fill="#E6E6E6"/>
<path d="M223.779 301.838H232.297V287.567H214.845L223.779 301.838Z" fill="#FAFAFA"/>
<path d="M79.7374 215.832H60.0728V301.829H79.7374V215.832Z" fill="#E6E6E6"/>
<path d="M232.297 215.832H72.3062V296.924H232.297V215.832Z" fill="#FAFAFA"/>
<path d="M80.8155 301.838H72.3062V287.567H89.749L80.8155 301.838Z" fill="#FAFAFA"/>
<path d="M225.687 222.654H78.9072V252.561H225.687V222.654Z" fill="#EBEBEB"/>
<path d="M147.793 237.617C147.795 238.508 148.061 239.379 148.558 240.119C149.054 240.859 149.759 241.435 150.583 241.775C151.407 242.115 152.313 242.203 153.187 242.028C154.061 241.853 154.863 241.423 155.493 240.792C156.122 240.161 156.551 239.358 156.724 238.484C156.897 237.609 156.807 236.703 156.466 235.88C156.124 235.057 155.547 234.353 154.805 233.858C154.064 233.363 153.193 233.099 152.302 233.099C151.709 233.099 151.122 233.216 150.574 233.443C150.027 233.67 149.529 234.003 149.111 234.423C148.692 234.843 148.36 235.341 148.134 235.889C147.908 236.437 147.792 237.024 147.793 237.617Z" fill="white"/>
<path d="M225.687 259.789H78.9072V289.696H225.687V259.789Z" fill="#EBEBEB"/>
<path d="M147.793 274.733C147.793 275.625 148.058 276.497 148.553 277.238C149.049 277.979 149.753 278.557 150.576 278.898C151.4 279.24 152.307 279.329 153.181 279.155C154.056 278.981 154.859 278.552 155.489 277.921C156.12 277.291 156.549 276.487 156.723 275.613C156.897 274.738 156.808 273.832 156.467 273.008C156.125 272.184 155.548 271.48 154.806 270.985C154.065 270.49 153.193 270.225 152.302 270.225C151.106 270.225 149.959 270.7 149.114 271.546C148.268 272.391 147.793 273.538 147.793 274.733Z" fill="white"/>
<path d="M391.126 34.987H325.052V136.288H391.126V34.987Z" fill="#E6E6E6"/>
<path d="M396.713 34.987H326.582V136.288H396.713V34.987Z" fill="#F5F5F5"/>
<path d="M392.242 131.826V39.4676L331.054 39.4676V131.826H392.242Z" fill="white"/>
<path d="M381.474 120.247V51.0562H341.822V120.247H381.474Z" fill="#F5F5F5"/>
<path d="M230.481 343.472C329.203 343.472 409.233 338.8 409.233 333.036C409.233 327.272 329.203 322.6 230.481 322.6C131.759 322.6 51.729 327.272 51.729 333.036C51.729 338.8 131.759 343.472 230.481 343.472Z" fill="#F5F5F5"/>
<path d="M187.611 184.44C187.611 185.565 187.077 185.362 186.69 185.537L185.556 185.906L183.306 186.653C181.785 187.123 180.282 187.575 178.761 188.063C175.728 188.985 172.667 189.833 169.542 190.543C169.482 190.557 169.421 190.559 169.361 190.548C169.301 190.538 169.244 190.516 169.192 190.483C169.141 190.451 169.096 190.408 169.061 190.358C169.026 190.309 169.002 190.252 168.989 190.193C168.968 190.089 168.981 189.981 169.028 189.886C169.075 189.791 169.152 189.714 169.247 189.667C172.151 188.349 175.092 187.169 178.06 186.044C179.545 185.482 181.038 184.947 182.522 184.403L184.772 183.629L185.887 183.232C186.284 183.168 186.542 182.688 187.261 183.564C187.478 183.805 187.603 184.116 187.611 184.44Z" fill="#FF2C00"/>
<path opacity="0.8" d="M187.611 184.44C187.611 185.565 187.077 185.362 186.69 185.537L185.556 185.906L183.306 186.653C181.785 187.123 180.282 187.575 178.761 188.063C175.728 188.985 172.667 189.833 169.542 190.543C169.482 190.557 169.421 190.559 169.361 190.548C169.301 190.538 169.244 190.516 169.192 190.483C169.141 190.451 169.096 190.408 169.061 190.358C169.026 190.309 169.002 190.252 168.989 190.193C168.968 190.089 168.981 189.981 169.028 189.886C169.075 189.791 169.152 189.714 169.247 189.667C172.151 188.349 175.092 187.169 178.06 186.044C179.545 185.482 181.038 184.947 182.522 184.403L184.772 183.629L185.887 183.232C186.284 183.168 186.542 182.688 187.261 183.564C187.478 183.805 187.603 184.116 187.611 184.44Z" fill="white"/>
<path d="M184.127 187.455C184.127 187.455 183.785 197.734 170.971 197.734C158.156 197.734 157.806 187.455 157.806 187.455H184.127Z" fill="#FF2C00"/>
<g opacity="0.6">
<path d="M184.127 187.455C184.127 187.455 183.785 197.734 170.971 197.734C158.156 197.734 157.806 187.455 157.806 187.455H184.127Z" fill="black"/>
</g>
<path d="M246.365 183.306C246.192 183.315 246.02 183.334 245.849 183.361V182.2C245.849 181.814 245.695 181.443 245.422 181.17C245.149 180.897 244.779 180.743 244.392 180.743H233.025C232.638 180.743 232.266 180.896 231.992 181.169C231.717 181.442 231.562 181.813 231.559 182.2V196.739C231.559 197.003 231.664 197.256 231.851 197.443C232.037 197.629 232.291 197.734 232.555 197.734H244.862C244.993 197.734 245.122 197.708 245.242 197.658C245.362 197.608 245.472 197.535 245.563 197.442C245.655 197.349 245.727 197.24 245.776 197.119C245.826 196.998 245.85 196.869 245.849 196.739V195.116C246.02 195.141 246.192 195.156 246.365 195.162C246.932 195.162 247.493 195.05 248.017 194.833C248.541 194.615 249.016 194.296 249.416 193.895C249.816 193.493 250.133 193.016 250.348 192.492C250.563 191.967 250.673 191.405 250.671 190.838V187.612C250.668 186.47 250.214 185.377 249.407 184.57C248.6 183.763 247.506 183.309 246.365 183.306ZM248.827 190.866C248.824 191.517 248.564 192.141 248.102 192.601C247.641 193.06 247.016 193.318 246.365 193.318C246.192 193.319 246.019 193.3 245.849 193.263V185.205C246.019 185.173 246.192 185.154 246.365 185.15C247.017 185.152 247.642 185.413 248.103 185.874C248.564 186.335 248.824 186.959 248.827 187.612V190.866Z" fill="#263238"/>
<path d="M239.433 163.402C240.024 164.68 240.314 166.078 240.281 167.486C240.232 168.871 239.946 170.237 239.433 171.524C238.981 172.732 238.511 173.773 238.114 174.917C237.718 176.06 237.294 177.268 236.676 178.549C236.662 178.579 236.637 178.602 236.606 178.614C236.575 178.626 236.541 178.626 236.51 178.614C236.495 178.608 236.482 178.599 236.471 178.588C236.46 178.577 236.451 178.564 236.446 178.549C235.873 177.268 235.593 175.876 235.625 174.474C235.671 173.093 235.945 171.728 236.436 170.436C236.87 169.219 237.358 168.177 237.727 167.034C238.155 165.798 238.647 164.586 239.202 163.402C239.218 163.373 239.244 163.352 239.274 163.342C239.305 163.331 239.338 163.333 239.368 163.346C239.368 163.346 239.414 163.383 239.433 163.402Z" fill="#E0E0E0"/>
<path d="M245.683 158.571C246.278 159.848 246.569 161.246 246.532 162.655C246.486 164.039 246.203 165.405 245.693 166.693C245.241 167.892 244.771 168.943 244.374 170.086C243.978 171.229 243.545 172.437 242.927 173.718C242.913 173.748 242.888 173.772 242.857 173.784C242.826 173.796 242.792 173.795 242.761 173.783C242.735 173.766 242.713 173.744 242.696 173.718C242.133 172.435 241.853 171.045 241.876 169.643C241.924 168.261 242.201 166.896 242.696 165.605C243.13 164.388 243.563 163.346 243.987 162.203C244.411 160.967 244.901 159.755 245.453 158.571C245.46 158.556 245.47 158.543 245.482 158.532C245.494 158.521 245.508 158.512 245.524 158.507C245.539 158.502 245.556 158.5 245.572 158.502C245.589 158.503 245.604 158.508 245.619 158.516C245.646 158.526 245.669 158.546 245.683 158.571Z" fill="#E0E0E0"/>
<path d="M277.37 203.671H271.801V333.027H277.37V203.671Z" fill="#FF2C00"/>
<path d="M90.6801 333.036H96.2485L96.2485 203.681H90.6801L90.6801 333.036Z" fill="#FF2C00"/>
<path d="M140.437 203.671H134.868V333.027H140.437V203.671Z" fill="#FF2C00"/>
<path d="M321.815 203.671H316.247V333.027H321.815V203.671Z" fill="#FF2C00"/>
<path d="M321.816 197.734H134.868V203.681H321.816V197.734Z" fill="#FF2C00"/>
<path d="M85.1212 203.671H134.877V197.725H85.1212V203.671Z" fill="#FF2C00"/>
<g opacity="0.3">
<path d="M85.1212 203.671H134.877V197.725H85.1212V203.671Z" fill="black"/>
</g>
<path d="M90.6802 203.671H85.1118V333.027H90.6802V203.671Z" fill="#FF2C00"/>
<path opacity="0.3" d="M90.6802 203.671H85.1118V333.027H90.6802V203.671Z" fill="black"/>
<path d="M129.309 333.036H134.877L134.877 203.681H129.309L129.309 333.036Z" fill="#FF2C00"/>
<path opacity="0.3" d="M129.309 333.036H134.877L134.877 203.681H129.309L129.309 333.036Z" fill="black"/>
<path d="M266.224 333.036H271.792V203.681H266.224V333.036Z" fill="#FF2C00"/>
<path opacity="0.3" d="M266.224 333.036H271.792V203.681H266.224V333.036Z" fill="#FF2C00"/>
<path opacity="0.3" d="M266.224 333.036H271.792V203.681H266.224V333.036Z" fill="black"/>
<path d="M310.679 333.036H316.247V203.681H310.679V333.036Z" fill="#FF2C00"/>
<path opacity="0.3" d="M310.679 333.036H316.247V203.681H310.679V333.036Z" fill="#FF2C00"/>
<path opacity="0.3" d="M310.679 333.036H316.247V203.681H310.679V333.036Z" fill="black"/>
<path d="M164.922 148.218H125.805V197.725H164.922V148.218Z" fill="#FF2C00"/>
<path d="M164.923 161.742H135.025V184.21H164.923V161.742Z" fill="#FF2C00"/>
<path opacity="0.2" d="M164.923 161.742H135.025V184.21H164.923V161.742Z" fill="black"/>
<path d="M116.18 197.734H125.805V148.227H116.18V197.734Z" fill="#FF2C00"/>
<path opacity="0.2" d="M116.18 197.734H125.805V148.227H116.18V197.734Z" fill="black"/>
<path d="M116.171 148.218H125.805L123.842 144.88H114.217L116.171 148.218Z" fill="#FF2C00"/>
<path opacity="0.2" d="M116.171 148.218H125.805L123.842 144.88H114.217L116.171 148.218Z" fill="black"/>
<path d="M164.923 148.218H155.289L157.253 144.88H166.878L164.923 148.218Z" fill="#FF2C00"/>
<path opacity="0.2" d="M164.923 148.218H155.289L157.253 144.88H166.878L164.923 148.218Z" fill="black"/>
<path d="M194.369 119.223V117.084C194.366 116.429 194.565 115.789 194.94 115.251C195.316 114.714 195.848 114.306 196.465 114.084C197.081 113.861 197.751 113.835 198.383 114.01C199.015 114.184 199.577 114.549 199.993 115.056C198.771 115.193 197.608 115.651 196.62 116.383C195.632 117.114 194.856 118.094 194.369 119.223Z" fill="#FF2C00"/>
<path opacity="0.4" d="M194.369 119.223V117.084C194.366 116.429 194.565 115.789 194.94 115.251C195.316 114.714 195.848 114.306 196.465 114.084C197.081 113.861 197.751 113.835 198.383 114.01C199.015 114.184 199.577 114.549 199.993 115.056C198.771 115.193 197.608 115.651 196.62 116.383C195.632 117.114 194.856 118.094 194.369 119.223Z" fill="white"/>
<path d="M197.679 116.218C197.437 117.159 197.576 118.157 198.066 118.996C198.557 119.835 199.358 120.447 200.297 120.698L202.141 113.599C201.202 113.363 200.208 113.505 199.374 113.995C198.539 114.485 197.93 115.283 197.679 116.218Z" fill="#FF2C00"/>
<path opacity="0.4" d="M197.679 116.218C197.437 117.159 197.576 118.157 198.066 118.996C198.557 119.835 199.358 120.447 200.297 120.698L202.141 113.599C201.202 113.363 200.208 113.505 199.374 113.995C198.539 114.485 197.93 115.283 197.679 116.218Z" fill="white"/>
<path d="M197.595 182.725C197.525 182.725 197.457 182.697 197.406 182.647C197.356 182.597 197.328 182.529 197.328 182.458V119.61C197.328 119.539 197.356 119.471 197.406 119.421C197.457 119.371 197.525 119.343 197.595 119.343C197.666 119.343 197.734 119.371 197.785 119.421C197.835 119.471 197.863 119.539 197.863 119.61V182.458C197.863 182.529 197.835 182.597 197.785 182.647C197.734 182.697 197.666 182.725 197.595 182.725Z" fill="#FF2C00"/>
<path opacity="0.2" d="M197.595 182.725C197.525 182.725 197.457 182.697 197.406 182.647C197.356 182.597 197.328 182.529 197.328 182.458V119.61C197.328 119.539 197.356 119.471 197.406 119.421C197.457 119.371 197.525 119.343 197.595 119.343C197.666 119.343 197.734 119.371 197.785 119.421C197.835 119.471 197.863 119.539 197.863 119.61V182.458C197.863 182.529 197.835 182.597 197.785 182.647C197.734 182.697 197.666 182.725 197.595 182.725Z" fill="black"/>
<path d="M200.74 121.998C200.696 122.813 200.341 123.581 199.749 124.142C199.156 124.704 198.371 125.017 197.554 125.017C196.738 125.017 195.953 124.704 195.36 124.142C194.768 123.581 194.413 122.813 194.369 121.998V119.232C194.86 118.109 195.638 117.134 196.625 116.408C197.613 115.681 198.774 115.227 199.993 115.093C200.473 115.66 200.737 116.378 200.74 117.121V121.998Z" fill="#FF2C00"/>
<path opacity="0.2" d="M200.74 121.998C200.696 122.813 200.341 123.581 199.749 124.142C199.156 124.704 198.371 125.017 197.554 125.017C196.738 125.017 195.953 124.704 195.36 124.142C194.768 123.581 194.413 122.813 194.369 121.998V119.232C194.86 118.109 195.638 117.134 196.625 116.408C197.613 115.681 198.774 115.227 199.993 115.093C200.473 115.66 200.737 116.378 200.74 117.121V121.998Z" fill="black"/>
<path d="M197.172 116.669C197.413 117.612 197.273 118.612 196.78 119.451C196.288 120.29 195.484 120.901 194.544 121.15L192.7 114.051C193.64 113.812 194.636 113.953 195.473 114.443C196.31 114.933 196.92 115.733 197.172 116.669Z" fill="#FF2C00"/>
<path opacity="0.2" d="M197.172 116.669C197.413 117.612 197.273 118.612 196.78 119.451C196.288 120.29 195.484 120.901 194.544 121.15L192.7 114.051C193.64 113.812 194.636 113.953 195.473 114.443C196.31 114.933 196.92 115.733 197.172 116.669Z" fill="black"/>
<path d="M199.228 118.098C199.402 117.842 199.626 117.623 199.886 117.453C200.145 117.284 200.436 117.167 200.741 117.109C201.045 117.052 201.359 117.055 201.662 117.119C201.966 117.183 202.254 117.306 202.51 117.481L199.845 121.381C199.589 121.206 199.37 120.982 199.2 120.722C199.03 120.463 198.914 120.172 198.856 119.868C198.799 119.563 198.802 119.25 198.866 118.946C198.93 118.642 199.052 118.354 199.228 118.098Z" fill="#FF2C00"/>
<path opacity="0.2" d="M199.228 118.098C199.402 117.842 199.626 117.623 199.886 117.453C200.145 117.284 200.436 117.167 200.741 117.109C201.045 117.052 201.359 117.055 201.662 117.119C201.966 117.183 202.254 117.306 202.51 117.481L199.845 121.381C199.589 121.206 199.37 120.982 199.2 120.722C199.03 120.463 198.914 120.172 198.856 119.868C198.799 119.563 198.802 119.25 198.866 118.946C198.93 118.642 199.052 118.354 199.228 118.098Z" fill="black"/>
<path d="M193.659 132.619L196.757 136.159C197.299 136.783 197.597 137.582 197.596 138.408V143.82L193.355 138.971C192.811 138.348 192.513 137.548 192.516 136.721V133.034C192.52 132.903 192.563 132.776 192.64 132.67C192.717 132.564 192.824 132.483 192.947 132.439C193.07 132.394 193.204 132.387 193.331 132.419C193.458 132.451 193.572 132.521 193.659 132.619Z" fill="#FF2C00"/>
<path opacity="0.2" d="M193.659 132.619L196.757 136.159C197.299 136.783 197.597 137.582 197.596 138.408V143.82L193.355 138.971C192.811 138.348 192.513 137.548 192.516 136.721V133.034C192.52 132.903 192.563 132.776 192.64 132.67C192.717 132.564 192.824 132.483 192.947 132.439C193.07 132.394 193.204 132.387 193.331 132.419C193.458 132.451 193.572 132.521 193.659 132.619Z" fill="black"/>
<path d="M201.532 139.994L198.444 143.534C197.899 144.157 197.598 144.956 197.596 145.784V151.196L201.837 146.346C202.383 145.724 202.684 144.925 202.685 144.097V140.409C202.683 140.276 202.64 140.147 202.563 140.039C202.486 139.93 202.377 139.848 202.252 139.803C202.127 139.758 201.991 139.752 201.862 139.786C201.734 139.821 201.619 139.893 201.532 139.994Z" fill="#FF2C00"/>
<path opacity="0.2" d="M201.532 139.994L198.444 143.534C197.899 144.157 197.598 144.956 197.596 145.784V151.196L201.837 146.346C202.383 145.724 202.684 144.925 202.685 144.097V140.409C202.683 140.276 202.64 140.147 202.563 140.039C202.486 139.93 202.377 139.848 202.252 139.803C202.127 139.758 201.991 139.752 201.862 139.786C201.734 139.821 201.619 139.893 201.532 139.994Z" fill="black"/>
<path opacity="0.7" d="M200.823 179.775C200.417 169.33 197.642 165.66 200.14 155.104H195.06C197.55 165.66 194.784 169.33 194.369 179.775C193.954 190.221 193.364 197.734 197.596 197.734C201.827 197.734 201.237 190.221 200.823 179.775Z" fill="#EBEBEB"/>
<path d="M329.228 333.1C328.926 333.099 328.634 332.987 328.407 332.788C328.18 332.588 328.033 332.312 327.993 332.013L316.69 245.84H297.855L286.553 332.013C286.543 332.185 286.498 332.353 286.42 332.507C286.343 332.661 286.234 332.797 286.101 332.907C285.969 333.017 285.815 333.099 285.649 333.147C285.484 333.195 285.31 333.208 285.139 333.186C284.968 333.163 284.803 333.106 284.656 333.017C284.508 332.929 284.38 332.811 284.28 332.67C284.18 332.53 284.11 332.37 284.074 332.202C284.038 332.033 284.038 331.859 284.073 331.69L295.523 244.43C295.561 244.129 295.708 243.853 295.935 243.652C296.162 243.452 296.455 243.342 296.758 243.342H317.787C318.09 243.342 318.383 243.452 318.611 243.652C318.838 243.853 318.985 244.129 319.023 244.43L330.473 331.69C330.495 331.853 330.484 332.018 330.442 332.177C330.4 332.336 330.326 332.485 330.226 332.615C330.126 332.746 330 332.855 329.858 332.936C329.715 333.018 329.558 333.071 329.394 333.091L329.228 333.1Z" fill="#FF2C00"/>
<path opacity="0.5" d="M329.228 333.1C328.926 333.099 328.634 332.987 328.407 332.788C328.18 332.588 328.033 332.312 327.993 332.013L316.69 245.84H297.855L286.553 332.013C286.543 332.185 286.498 332.353 286.42 332.507C286.343 332.661 286.234 332.797 286.101 332.907C285.969 333.017 285.815 333.099 285.649 333.147C285.484 333.195 285.31 333.208 285.139 333.186C284.968 333.163 284.803 333.106 284.656 333.017C284.508 332.929 284.38 332.811 284.28 332.67C284.18 332.53 284.11 332.37 284.074 332.202C284.038 332.033 284.038 331.859 284.073 331.69L295.523 244.43C295.561 244.129 295.708 243.853 295.935 243.652C296.162 243.452 296.455 243.342 296.758 243.342H317.787C318.09 243.342 318.383 243.452 318.611 243.652C318.838 243.853 318.985 244.129 319.023 244.43L330.473 331.69C330.495 331.853 330.484 332.018 330.442 332.177C330.4 332.336 330.326 332.485 330.226 332.615C330.126 332.746 330 332.855 329.858 332.936C329.715 333.018 329.558 333.071 329.394 333.091L329.228 333.1Z" fill="black"/>
<path d="M360.869 333.1C360.566 333.099 360.275 332.988 360.048 332.788C359.821 332.588 359.674 332.312 359.634 332.013L348.322 245.84H329.496L318.184 332.013C318.174 332.185 318.129 332.353 318.052 332.507C317.974 332.661 317.865 332.797 317.733 332.907C317.6 333.017 317.446 333.099 317.281 333.147C317.115 333.195 316.941 333.208 316.77 333.186C316.599 333.163 316.435 333.106 316.287 333.018C316.139 332.929 316.011 332.811 315.911 332.67C315.811 332.53 315.741 332.37 315.705 332.202C315.67 332.033 315.669 331.859 315.704 331.69L327.154 244.43C327.194 244.128 327.343 243.852 327.572 243.652C327.801 243.452 328.095 243.341 328.399 243.342H349.409C349.713 243.34 350.007 243.449 350.235 243.65C350.463 243.851 350.609 244.128 350.645 244.43L362.095 331.69C362.117 331.852 362.107 332.017 362.065 332.175C362.023 332.334 361.951 332.482 361.851 332.612C361.752 332.743 361.628 332.852 361.486 332.934C361.345 333.016 361.188 333.07 361.026 333.091L360.869 333.1Z" fill="#FF2C00"/>
<path opacity="0.5" d="M360.869 333.1C360.566 333.099 360.275 332.988 360.048 332.788C359.821 332.588 359.674 332.312 359.634 332.013L348.322 245.84H329.496L318.184 332.013C318.174 332.185 318.129 332.353 318.052 332.507C317.974 332.661 317.865 332.797 317.733 332.907C317.6 333.017 317.446 333.099 317.281 333.147C317.115 333.195 316.941 333.208 316.77 333.186C316.599 333.163 316.435 333.106 316.287 333.018C316.139 332.929 316.011 332.811 315.911 332.67C315.811 332.53 315.741 332.37 315.705 332.202C315.67 332.033 315.669 331.859 315.704 331.69L327.154 244.43C327.194 244.128 327.343 243.852 327.572 243.652C327.801 243.452 328.095 243.341 328.399 243.342H349.409C349.713 243.34 350.007 243.449 350.235 243.65C350.463 243.851 350.609 244.128 350.645 244.43L362.095 331.69C362.117 331.852 362.107 332.017 362.065 332.175C362.023 332.334 361.951 332.482 361.851 332.612C361.752 332.743 361.628 332.852 361.486 332.934C361.345 333.016 361.188 333.07 361.026 333.091L360.869 333.1Z" fill="black"/>
<path d="M309.416 244.586H351.05C354.87 244.587 358.538 243.09 361.267 240.417C363.995 237.743 365.567 234.107 365.644 230.287L367.202 167.016C367.23 165.601 366.976 164.195 366.454 162.879C365.932 161.564 365.153 160.366 364.162 159.355C363.171 158.345 361.989 157.542 360.684 156.994C359.379 156.447 357.978 156.164 356.563 156.165H330.464C327.853 156.168 325.336 157.131 323.389 158.87C321.443 160.609 320.204 163.003 319.908 165.596L309.416 244.586Z" fill="#FF2C00"/>
<path opacity="0.6" d="M309.416 244.586H351.05C354.87 244.587 358.538 243.09 361.267 240.417C363.995 237.743 365.567 234.107 365.644 230.287L367.202 167.016C367.23 165.601 366.976 164.195 366.454 162.879C365.932 161.564 365.153 160.366 364.162 159.355C363.171 158.345 361.989 157.542 360.684 156.994C359.379 156.447 357.978 156.164 356.563 156.165H330.464C327.853 156.168 325.336 157.131 323.389 158.87C321.443 160.609 320.204 163.003 319.908 165.596L309.416 244.586Z" fill="white"/>
<path d="M337.304 244.586H282.911C282.233 244.586 281.584 244.317 281.105 243.838C280.626 243.36 280.357 242.71 280.357 242.033V241.793C280.357 239.937 281.094 238.157 282.406 236.845C283.719 235.533 285.499 234.796 287.354 234.796H337.304V244.586Z" fill="#FF2C00"/>
<path opacity="0.6" d="M337.304 244.586H282.911C282.233 244.586 281.584 244.317 281.105 243.838C280.626 243.36 280.357 242.71 280.357 242.033V241.793C280.357 239.937 281.094 238.157 282.406 236.845C283.719 235.533 285.499 234.796 287.354 234.796H337.304V244.586Z" fill="white"/>
<path d="M327.855 99.5678C326.011 96.9588 310.08 94.3405 303.977 104.482C297.874 114.623 307.729 152.164 294.915 157.151C305.157 166.103 340.762 174.548 338.116 144.668C336.235 123.538 343.472 102.85 327.855 99.5678Z" fill="#263238"/>
<path d="M297.744 323.245H288.156L285.068 301.036H294.656L297.744 323.245Z" fill="#EEC1BB"/>
<path d="M260.637 323.245H251.049L249.574 301.036H259.162L260.637 323.245Z" fill="#EEC1BB"/>
<path d="M249.574 301.045L250.33 312.486H259.927L259.171 301.045H249.574Z" fill="#DB9792"/>
<path d="M294.665 301.045H285.068L286.663 312.486H296.26L294.665 301.045Z" fill="#DB9792"/>
<path d="M304.788 206.631C304.788 206.631 240.493 212.614 241.12 241.858C241.774 272.281 248.283 310.274 248.283 310.274H261.559C261.559 310.274 262.702 278.117 263.08 248.173C263.283 232.565 325.411 229.439 325.411 229.439L333.432 206.631H304.788Z" fill="#FF2C00"/>
<path opacity="0.7" d="M304.788 206.631C304.788 206.631 240.493 212.614 241.12 241.858C241.774 272.281 248.283 310.274 248.283 310.274H261.559C261.559 310.274 262.702 278.117 263.08 248.173C263.283 232.565 325.411 229.439 325.411 229.439L333.432 206.631H304.788Z" fill="black"/>
<path d="M306.9 161.079C306.77 161.788 306.66 162.286 306.531 162.867C306.402 163.448 306.263 163.973 306.125 164.527C305.839 165.614 305.544 166.693 305.203 167.763C304.585 169.892 303.866 171.994 303.11 174.059C301.598 178.208 299.874 182.237 297.984 186.192L297.265 187.667L296.897 188.414C296.714 188.793 296.51 189.162 296.288 189.52C295.377 191 294.129 192.244 292.647 193.152C291.29 193.973 289.792 194.532 288.231 194.803C286.878 195.024 285.505 195.089 284.137 194.996C281.706 194.8 279.313 194.279 277.02 193.447C275.923 193.069 274.863 192.608 273.821 192.129C272.763 191.648 271.732 191.109 270.732 190.516L272.742 185.989C276.541 186.911 280.745 187.593 284.137 187.28C285.464 187.232 286.747 186.792 287.825 186.017C288.119 185.734 288.354 185.395 288.516 185.021L289.484 182.523C290.978 178.641 292.398 174.732 293.67 170.805C294.324 168.841 294.905 166.868 295.514 164.914C295.809 163.937 296.076 162.959 296.334 161.982L296.712 160.535L297.035 159.198L306.9 161.079Z" fill="#EEC1BB"/>
<path d="M273.811 186.173L268.28 180.587L266.289 190.128C268.621 190.989 271.147 191.177 273.581 190.672L273.811 186.173Z" fill="#EEC1BB"/>
<path d="M287.557 322.129H298.334C298.519 322.128 298.699 322.193 298.84 322.313C298.98 322.434 299.073 322.601 299.1 322.784L300.326 331.312C300.349 331.528 300.327 331.746 300.26 331.952C300.193 332.159 300.083 332.348 299.938 332.509C299.793 332.671 299.615 332.799 299.416 332.887C299.218 332.974 299.003 333.019 298.786 333.017C295.034 332.953 293.255 332.732 288.479 332.732C285.566 332.732 278.089 333.036 274.069 333.036C270.05 333.036 269.828 329.053 271.506 328.694C279.02 327.08 283.427 324.849 285.953 322.72C286.404 322.344 286.97 322.136 287.557 322.129Z" fill="#263238"/>
<path d="M250.302 322.13H261.071C261.256 322.126 261.437 322.19 261.578 322.311C261.719 322.432 261.811 322.6 261.836 322.784L263.071 331.312C263.093 331.527 263.07 331.745 263.002 331.951C262.935 332.156 262.825 332.346 262.68 332.506C262.535 332.667 262.358 332.796 262.16 332.884C261.962 332.972 261.748 333.017 261.532 333.017C257.77 332.953 256 332.732 251.224 332.732C248.311 332.732 242.282 333.036 238.262 333.036C234.243 333.036 234.021 329.053 235.699 328.694C243.213 327.08 246.163 324.849 248.698 322.72C249.149 322.344 249.716 322.136 250.302 322.13Z" fill="#263238"/>
<path d="M262.591 310.541H247.251L246.117 305.194L263.08 304.004L262.591 310.541Z" fill="#FF2C00"/>
<path d="M284.275 323.743C283.642 323.801 283.01 323.628 282.496 323.254C282.343 323.11 282.23 322.93 282.167 322.73C282.104 322.529 282.093 322.316 282.136 322.111C282.148 321.985 282.193 321.864 282.265 321.761C282.338 321.658 282.437 321.575 282.551 321.521C283.639 321.032 286.515 322.895 286.847 323.107C286.871 323.127 286.89 323.152 286.901 323.181C286.912 323.21 286.916 323.242 286.912 323.273C286.907 323.304 286.893 323.333 286.872 323.356C286.85 323.379 286.823 323.395 286.792 323.402C285.968 323.606 285.124 323.72 284.275 323.743ZM283.031 321.751C282.921 321.751 282.811 321.769 282.708 321.807C282.642 321.837 282.587 321.885 282.547 321.945C282.508 322.006 282.487 322.076 282.487 322.148C282.45 322.302 282.454 322.462 282.498 322.614C282.541 322.765 282.623 322.903 282.735 323.015C283.252 323.485 284.579 323.54 286.368 323.162C285.363 322.47 284.227 321.99 283.031 321.751Z" fill="#FF2C00"/>
<path d="M286.718 323.402C286.691 323.41 286.662 323.41 286.635 323.402C285.63 322.83 284.035 320.793 284.229 319.806C284.261 319.642 284.35 319.494 284.479 319.388C284.609 319.282 284.771 319.224 284.939 319.225C285.104 319.199 285.273 319.211 285.433 319.26C285.593 319.31 285.74 319.396 285.861 319.511C286.884 320.433 286.893 323.144 286.893 323.263C286.893 323.291 286.887 323.318 286.874 323.342C286.861 323.366 286.842 323.387 286.82 323.402H286.718ZM285.086 319.52H284.976C284.644 319.567 284.57 319.732 284.542 319.852C284.395 320.59 285.658 322.268 286.552 322.941C286.552 322.212 286.359 320.378 285.63 319.732C285.493 319.601 285.313 319.526 285.123 319.52H285.086Z" fill="#FF2C00"/>
<path d="M246.697 323.743C245.896 323.815 245.093 323.613 244.42 323.171C244.276 323.04 244.165 322.876 244.097 322.693C244.03 322.51 244.008 322.314 244.033 322.12C244.037 322.005 244.071 321.893 244.133 321.796C244.194 321.699 244.281 321.62 244.383 321.567C245.527 320.94 249.316 322.876 249.749 323.098C249.779 323.113 249.803 323.137 249.818 323.167C249.833 323.197 249.838 323.231 249.832 323.263C249.828 323.297 249.814 323.329 249.791 323.354C249.767 323.379 249.736 323.396 249.703 323.402C248.713 323.606 247.707 323.72 246.697 323.743ZM245.001 321.752C244.842 321.742 244.683 321.774 244.54 321.844C244.484 321.87 244.437 321.912 244.405 321.964C244.372 322.017 244.355 322.077 244.356 322.139C244.332 322.282 244.344 322.429 244.393 322.566C244.441 322.703 244.524 322.826 244.632 322.922C245.25 323.476 246.928 323.558 249.177 323.162C247.874 322.461 246.463 321.984 245.001 321.752Z" fill="#FF2C00"/>
<path d="M249.675 323.402H249.611C248.477 322.885 246.246 320.857 246.421 319.797C246.421 319.567 246.624 319.272 247.214 319.216C247.43 319.192 247.649 319.214 247.857 319.279C248.065 319.344 248.257 319.451 248.421 319.594C249.611 320.581 249.823 323.134 249.832 323.282C249.837 323.31 249.833 323.339 249.822 323.365C249.81 323.391 249.791 323.414 249.767 323.429C249.735 323.429 249.703 323.419 249.675 323.402ZM247.389 319.52H247.251C246.78 319.567 246.753 319.779 246.734 319.843C246.624 320.553 248.265 322.286 249.5 322.968C249.408 322.277 249.094 320.544 248.237 319.825C248 319.624 247.699 319.516 247.389 319.52Z" fill="#FF2C00"/>
<path d="M315.068 206.631C315.068 206.631 273.516 220.414 272.475 237.469C270.539 268.87 284.349 310.301 284.349 310.301H297.422C297.422 310.301 296.684 282.828 295.117 254.377C293.153 218.634 356.231 253.889 343.73 206.659L315.068 206.631Z" fill="#FF2C00"/>
<path opacity="0.7" d="M315.068 206.631C315.068 206.631 273.516 220.414 272.475 237.469C270.539 268.87 284.349 310.301 284.349 310.301H297.422C297.422 310.301 296.684 282.828 295.117 254.377C293.153 218.634 356.231 253.889 343.73 206.659L315.068 206.631Z" fill="black"/>
<path d="M298.473 310.541H283.132L281.998 305.194L298.888 304.972L298.473 310.541Z" fill="#FF2C00"/>
<path d="M344.311 204.354L344.625 207.839C344.763 208.106 344.44 208.382 343.988 208.382H304.595C304.244 208.382 303.949 208.207 303.931 207.986L303.581 204.501C303.581 204.261 303.857 204.059 304.244 204.059H343.684C343.805 204.048 343.927 204.07 344.037 204.122C344.147 204.174 344.242 204.254 344.311 204.354Z" fill="#FF2C00"/>
<path d="M339.019 208.761H340.07C340.282 208.761 340.448 208.65 340.43 208.521L339.932 203.985C339.932 203.856 339.738 203.745 339.526 203.745H338.466C338.263 203.745 338.097 203.856 338.116 203.985L338.614 208.521C338.623 208.65 338.807 208.761 339.019 208.761Z" fill="#FF2C00"/>
<path d="M307.563 208.761H308.614C308.826 208.761 308.992 208.65 308.974 208.521L308.476 203.985C308.476 203.856 308.282 203.745 308.07 203.745H307.001C306.798 203.745 306.632 203.856 306.65 203.985L307.148 208.521C307.167 208.65 307.351 208.761 307.563 208.761Z" fill="#FF2C00"/>
<path d="M323.291 208.761H324.351C324.554 208.761 324.72 208.65 324.702 208.521L324.204 203.985C324.204 203.856 324.01 203.745 323.798 203.745H322.738C322.535 203.745 322.369 203.856 322.388 203.985L322.885 208.521C322.895 208.65 323.079 208.761 323.291 208.761Z" fill="#FF2C00"/>
<g opacity="0.7">
<path d="M339.019 208.761H340.07C340.282 208.761 340.448 208.65 340.43 208.521L339.932 203.985C339.932 203.856 339.738 203.745 339.526 203.745H338.466C338.263 203.745 338.097 203.856 338.116 203.985L338.614 208.521C338.623 208.65 338.807 208.761 339.019 208.761Z" fill="black"/>
<path d="M307.563 208.761H308.614C308.826 208.761 308.992 208.65 308.974 208.521L308.476 203.985C308.476 203.856 308.282 203.745 308.07 203.745H307.001C306.798 203.745 306.632 203.856 306.65 203.985L307.148 208.521C307.167 208.65 307.351 208.761 307.563 208.761Z" fill="black"/>
<path d="M323.291 208.761H324.351C324.554 208.761 324.72 208.65 324.702 208.521L324.204 203.985C324.204 203.856 324.01 203.745 323.798 203.745H322.738C322.535 203.745 322.369 203.856 322.388 203.985L322.885 208.521C322.895 208.65 323.079 208.761 323.291 208.761Z" fill="black"/>
</g>
<path d="M300.206 148.762C296.251 149.767 293.485 166.029 293.485 166.029L304.383 173.405C304.383 173.405 314.819 157.004 311.758 152.652C308.614 148.162 305.968 147.287 300.206 148.762Z" fill="#FF2C00"/>
<path opacity="0.8" d="M300.206 148.762C296.251 149.767 293.485 166.029 293.485 166.029L304.383 173.405C304.383 173.405 314.819 157.004 311.758 152.652C308.614 148.162 305.968 147.287 300.206 148.762Z" fill="white"/>
<path d="M300.206 148.762C300.206 148.762 295.596 150.366 304.815 206.631H343.757C343.103 190.783 343.084 181.011 350.663 148.485C345.21 147.356 339.682 146.626 334.123 146.3C328.237 145.88 322.327 145.88 316.441 146.3C308.844 147.001 300.206 148.762 300.206 148.762Z" fill="#FF2C00"/>
<path opacity="0.8" d="M300.206 148.762C300.206 148.762 295.596 150.366 304.815 206.631H343.757C343.103 190.783 343.084 181.011 350.663 148.485C345.21 147.356 339.682 146.626 334.123 146.3C328.237 145.88 322.327 145.88 316.441 146.3C308.844 147.001 300.206 148.762 300.206 148.762Z" fill="white"/>
<path d="M360.177 187.234C359.845 182.408 359.126 177.617 358.029 172.907C356.996 168.297 355.798 163.817 354.341 159.272L344.799 162.259C346.025 166.49 347.242 170.888 348.33 175.166C349.457 179.365 350.328 183.629 350.939 187.934C351.031 188.653 351.096 189.391 351.123 190.045C350.472 189.916 349.831 189.737 349.206 189.511C347.217 188.781 345.277 187.925 343.398 186.948C342.421 186.45 341.425 185.943 340.448 185.408L337.544 183.795L334.455 187.676C337.864 191.199 341.764 194.211 346.034 196.619C347.288 197.297 348.611 197.838 349.98 198.232C350.855 198.471 351.756 198.601 352.663 198.619C353.244 198.622 353.825 198.57 354.396 198.463C355.096 198.316 355.77 198.068 356.397 197.725C357.093 197.338 357.717 196.832 358.241 196.232C358.719 195.681 359.108 195.059 359.393 194.388C359.831 193.38 360.09 192.304 360.158 191.207C360.24 189.884 360.247 188.557 360.177 187.234Z" fill="#EEC1BB"/>
<path d="M332.344 126.387C331.229 132.084 330.113 142.502 334.096 146.3C334.096 146.3 332.538 152.071 321.973 152.071C310.347 152.071 316.441 146.3 316.441 146.3C322.784 144.788 322.618 140.077 321.521 135.661L332.344 126.387Z" fill="#EEC1BB"/>
<path d="M327.919 130.176L321.465 135.652C321.739 136.682 321.921 137.734 322.009 138.796C324.434 138.445 327.762 135.781 328.02 133.264C328.174 132.237 328.139 131.191 327.919 130.176Z" fill="#DB9792"/>
<path d="M331.717 110.529C333.792 119.813 334.87 123.704 331.607 129.715C326.711 138.768 314.846 139.284 310.043 130.793C305.71 123.16 303.055 109.257 310.965 103.043C312.697 101.673 314.751 100.767 316.931 100.412C319.111 100.056 321.346 100.263 323.424 101.013C325.502 101.762 327.354 103.03 328.805 104.695C330.257 106.36 331.259 108.369 331.717 110.529Z" fill="#EEC1BB"/>
<path d="M320.774 103.615C320.313 108.888 327.928 121.279 333.201 117.324C338.475 113.369 331.994 103.873 331.994 103.873L325.651 100.895L320.774 103.615Z" fill="#263238"/>
<path d="M327.025 101.67C324.407 109.515 308.586 112.438 304.392 111.912C306.696 104.279 310.191 99.4111 315.455 98.5445C320.719 97.6779 327.025 101.67 327.025 101.67Z" fill="#263238"/>
<path d="M336.502 118.606C336.492 119.518 336.302 120.419 335.942 121.257C335.583 122.096 335.062 122.855 334.409 123.492C332.658 125.179 330.629 123.888 330.15 121.648C329.726 119.61 330.15 116.282 332.344 115.443C334.538 114.604 336.502 116.347 336.502 118.606Z" fill="#EEC1BB"/>
<path d="M318.607 117.084C318.829 117.822 318.607 118.541 318.119 118.679C317.63 118.818 317.068 118.329 316.847 117.591C316.625 116.854 316.847 116.135 317.344 115.987C317.842 115.84 318.395 116.328 318.607 117.084Z" fill="#263238"/>
<path d="M310.209 119.5C310.421 120.237 310.209 120.956 309.72 121.095C309.232 121.233 308.669 120.744 308.448 120.007C308.227 119.269 308.448 118.541 308.946 118.403C309.444 118.264 309.997 118.753 310.209 119.5Z" fill="#263238"/>
<path d="M309.167 118.384H307.24C307.24 118.384 308.549 119.518 309.167 118.384Z" fill="#263238"/>
<path d="M312.8 120.136C312.628 122.03 312.196 123.891 311.518 125.667C311.971 125.825 312.453 125.883 312.93 125.837C313.408 125.791 313.87 125.642 314.284 125.4L312.8 120.136Z" fill="#D4827D"/>
<path d="M317.704 127.474C317.673 127.472 317.643 127.46 317.618 127.441C317.593 127.421 317.575 127.394 317.566 127.364C317.557 127.327 317.563 127.289 317.582 127.256C317.601 127.224 317.631 127.199 317.667 127.189C318.612 126.94 319.485 126.471 320.214 125.82C320.943 125.17 321.508 124.356 321.862 123.446C321.867 123.428 321.876 123.412 321.888 123.397C321.9 123.383 321.914 123.371 321.93 123.363C321.947 123.354 321.964 123.349 321.983 123.347C322.001 123.346 322.02 123.348 322.037 123.353C322.056 123.358 322.073 123.366 322.089 123.377C322.104 123.388 322.117 123.403 322.126 123.419C322.136 123.435 322.142 123.454 322.144 123.472C322.146 123.491 322.144 123.51 322.139 123.529C321.768 124.483 321.177 125.337 320.415 126.021C319.653 126.705 318.74 127.2 317.75 127.465L317.704 127.474Z" fill="#263238"/>
<path d="M319.778 113.175C319.718 113.174 319.661 113.155 319.612 113.12C319.053 112.717 318.409 112.449 317.729 112.338C317.049 112.226 316.353 112.273 315.694 112.475C315.659 112.489 315.621 112.496 315.584 112.495C315.546 112.494 315.509 112.486 315.474 112.471C315.439 112.456 315.408 112.435 315.381 112.408C315.355 112.381 315.334 112.349 315.321 112.313C315.307 112.278 315.3 112.241 315.3 112.203C315.301 112.165 315.309 112.128 315.324 112.093C315.339 112.059 315.361 112.027 315.388 112.001C315.415 111.975 315.447 111.954 315.482 111.94C316.229 111.697 317.023 111.634 317.798 111.757C318.574 111.881 319.31 112.187 319.944 112.65C319.976 112.671 320.004 112.699 320.025 112.731C320.046 112.763 320.06 112.799 320.067 112.837C320.074 112.875 320.073 112.914 320.065 112.951C320.056 112.989 320.04 113.024 320.018 113.056C319.99 113.093 319.953 113.123 319.912 113.143C319.87 113.164 319.825 113.175 319.778 113.175Z" fill="#263238"/>
<path d="M305.157 117.435C305.123 117.443 305.088 117.443 305.055 117.435C305.02 117.421 304.988 117.401 304.961 117.376C304.933 117.35 304.911 117.319 304.896 117.285C304.88 117.25 304.872 117.214 304.871 117.176C304.87 117.138 304.876 117.101 304.889 117.066C305.115 116.405 305.496 115.808 306.002 115.327C306.508 114.845 307.122 114.493 307.793 114.3C307.83 114.292 307.868 114.291 307.906 114.298C307.943 114.305 307.978 114.319 308.01 114.34C308.042 114.36 308.069 114.387 308.09 114.418C308.112 114.449 308.127 114.484 308.134 114.521C308.151 114.597 308.137 114.676 308.096 114.742C308.054 114.808 307.989 114.854 307.913 114.872C307.341 115.041 306.818 115.344 306.387 115.756C305.955 116.169 305.628 116.677 305.433 117.241C305.412 117.298 305.375 117.347 305.325 117.381C305.276 117.416 305.217 117.435 305.157 117.435Z" fill="#263238"/>
<path d="M317.565 115.96H315.639C315.639 115.96 316.957 117.084 317.565 115.96Z" fill="#263238"/>
<path d="M281.804 146.383L325.052 143.239L338.733 211.406L295.707 214.541C295.643 214.545 295.58 214.525 295.529 214.486C295.478 214.447 295.443 214.392 295.43 214.329L281.804 146.383Z" fill="#FAFAFA"/>
<path d="M295.652 214.504L267.92 209.129L254.267 140.962L282.33 146.402L295.938 214.237C295.948 214.276 295.948 214.317 295.937 214.355C295.926 214.394 295.905 214.429 295.875 214.457C295.846 214.484 295.81 214.503 295.77 214.511C295.731 214.52 295.69 214.517 295.652 214.504Z" fill="#FAFAFA"/>
<path d="M283.759 162.157L259.291 157.419L256.701 144.484L281.169 149.232L283.759 162.157Z" fill="#FF2C00"/>
<path d="M273.655 174.861L262.343 172.667L259.752 159.742L271.064 161.927L273.655 174.861Z" fill="#FF2C00"/>
<path d="M284.479 165.762L272.807 163.503L272.549 162.213L284.22 164.48L284.479 165.762Z" fill="#FF2C00"/>
<path d="M285.252 169.643L273.581 167.385L273.323 166.103L284.994 168.362L285.252 169.643Z" fill="#FF2C00"/>
<path d="M286.036 173.525L274.355 171.266L274.097 169.984L285.778 172.243L286.036 173.525Z" fill="#FF2C00"/>
<path d="M286.811 177.415L275.139 175.147L274.881 173.866L286.552 176.124L286.811 177.415Z" fill="#FF2C00"/>
<path d="M287.696 181.85L263.237 177.111L262.979 175.829L287.447 180.568L287.696 181.85Z" fill="#FF2C00"/>
<path d="M288.479 185.731L264.012 180.992L263.753 179.711L288.221 184.449L288.479 185.731Z" fill="#FF2C00"/>
<path d="M289.253 189.612L264.786 184.873L264.537 183.592L288.995 188.331L289.253 189.612Z" fill="#FF2C00"/>
<path d="M291.586 201.265L286.681 200.316L284.874 191.262L289.779 192.212L291.586 201.265Z" fill="#FF2C00"/>
<path d="M283.565 192.249L265.569 188.755L265.311 187.473L283.307 190.958L283.565 192.249Z" fill="#FF2C00"/>
<path d="M284.349 196.13L266.344 192.645L266.085 191.355L284.091 194.849L284.349 196.13Z" fill="#FF2C00"/>
<path d="M285.123 200.011L267.118 196.527L266.86 195.236L284.865 198.73L285.123 200.011Z" fill="#FF2C00"/>
<path d="M292.37 205.147L267.902 200.408L267.644 199.126L292.112 203.865L292.37 205.147Z" fill="#FF2C00"/>
<path d="M293.549 211.047L269.081 206.299L268.298 202.408L292.766 207.147L293.549 211.047Z" fill="#FF2C00"/>
<g opacity="0.6">
<path d="M283.759 162.157L259.291 157.419L256.701 144.484L281.169 149.232L283.759 162.157Z" fill="white"/>
<path d="M273.655 174.861L262.343 172.667L259.752 159.742L271.064 161.927L273.655 174.861Z" fill="white"/>
<path d="M284.478 165.762L272.806 163.503L272.548 162.213L284.219 164.48L284.478 165.762Z" fill="white"/>
<path d="M285.252 169.643L273.58 167.385L273.322 166.103L284.994 168.362L285.252 169.643Z" fill="white"/>
<path d="M286.036 173.525L274.355 171.266L274.097 169.984L285.777 172.243L286.036 173.525Z" fill="white"/>
<path d="M286.811 177.415L275.139 175.147L274.881 173.866L286.552 176.124L286.811 177.415Z" fill="white"/>
<path d="M287.696 181.85L263.237 177.111L262.979 175.829L287.447 180.568L287.696 181.85Z" fill="white"/>
<path d="M288.479 185.731L264.012 180.992L263.753 179.711L288.221 184.449L288.479 185.731Z" fill="white"/>
<path d="M289.253 189.612L264.786 184.873L264.537 183.592L288.995 188.331L289.253 189.612Z" fill="white"/>
<path d="M291.586 201.265L286.681 200.316L284.874 191.262L289.779 192.212L291.586 201.265Z" fill="white"/>
<path d="M283.565 192.249L265.569 188.755L265.311 187.473L283.307 190.958L283.565 192.249Z" fill="white"/>
<path d="M284.349 196.13L266.344 192.645L266.085 191.355L284.091 194.849L284.349 196.13Z" fill="white"/>
<path d="M285.123 200.011L267.118 196.527L266.86 195.236L284.865 198.73L285.123 200.011Z" fill="white"/>
<path d="M292.369 205.147L267.901 200.408L267.643 199.126L292.111 203.865L292.369 205.147Z" fill="white"/>
<path d="M293.549 211.047L269.081 206.299L268.298 202.408L292.766 207.147L293.549 211.047Z" fill="white"/>
</g>
<path d="M295.025 198.251L332.722 195.503L335.313 208.429L297.616 211.176L295.025 198.251Z" fill="#FF2C00"/>
<path d="M312.228 181.518L329.662 180.255L332.252 193.18L314.828 194.452L312.228 181.518Z" fill="#FF2C00"/>
<path d="M294.296 194.646L312.292 193.337L312.55 194.618L294.555 195.927L294.296 194.646Z" fill="#FF2C00"/>
<path d="M293.522 190.765L311.509 189.455L311.767 190.737L293.78 192.046L293.522 190.765Z" fill="#FF2C00"/>
<path d="M292.739 186.874L310.735 185.565L310.993 186.856L292.997 188.165L292.739 186.874Z" fill="#FF2C00"/>
<path d="M291.964 182.993L309.951 181.684L310.209 182.974L292.222 184.283L291.964 182.993Z" fill="#FF2C00"/>
<path d="M291.07 178.558L328.777 175.811L329.025 177.092L291.328 179.84L291.07 178.558Z" fill="#FF2C00"/>
<path d="M290.295 174.677L327.993 171.93L328.251 173.211L290.554 175.958L290.295 174.677Z" fill="#FF2C00"/>
<path d="M289.512 170.786L327.218 168.048L327.467 169.33L289.77 172.077L289.512 170.786Z" fill="#FF2C00"/>
<path d="M287.18 159.143L294.73 158.589L296.546 167.643L288.996 168.196L287.18 159.143Z" fill="#FF2C00"/>
<path d="M298.694 166.186L326.435 164.158L326.693 165.449L298.952 167.468L298.694 166.186Z" fill="#FF2C00"/>
<path d="M297.919 162.296L325.66 160.277L325.909 161.567L298.178 163.586L297.919 162.296Z" fill="#FF2C00"/>
<path d="M297.136 158.414L324.877 156.395L325.135 157.677L297.394 159.705L297.136 158.414Z" fill="#FF2C00"/>
<path d="M286.396 155.261L324.102 152.514L324.351 153.795L286.654 156.543L286.396 155.261Z" fill="#FF2C00"/>
<path d="M285.215 149.361L322.913 146.614L323.696 150.513L285.999 153.261L285.215 149.361Z" fill="#FF2C00"/>
<g opacity="0.6">
<path d="M295.025 198.251L332.722 195.503L335.313 208.429L297.616 211.176L295.025 198.251Z" fill="white"/>
<path d="M312.228 181.518L329.662 180.255L332.252 193.18L314.828 194.452L312.228 181.518Z" fill="white"/>
<path d="M294.296 194.646L312.292 193.337L312.55 194.618L294.555 195.927L294.296 194.646Z" fill="white"/>
<path d="M293.522 190.765L311.509 189.455L311.767 190.737L293.78 192.046L293.522 190.765Z" fill="white"/>
<path d="M292.739 186.874L310.735 185.565L310.993 186.856L292.997 188.165L292.739 186.874Z" fill="white"/>
<path d="M291.964 182.993L309.951 181.684L310.209 182.974L292.222 184.283L291.964 182.993Z" fill="white"/>
<path d="M291.07 178.558L328.777 175.811L329.025 177.092L291.328 179.84L291.07 178.558Z" fill="white"/>
<path d="M290.295 174.677L327.993 171.93L328.251 173.211L290.554 175.958L290.295 174.677Z" fill="white"/>
<path d="M289.512 170.786L327.218 168.048L327.467 169.33L289.77 172.077L289.512 170.786Z" fill="white"/>
<path d="M287.179 159.143L294.73 158.589L296.546 167.643L288.995 168.196L287.179 159.143Z" fill="white"/>
<path d="M298.694 166.186L326.435 164.158L326.693 165.449L298.952 167.468L298.694 166.186Z" fill="white"/>
<path d="M297.919 162.296L325.66 160.277L325.909 161.567L298.178 163.586L297.919 162.296Z" fill="white"/>
<path d="M297.136 158.414L324.877 156.395L325.135 157.677L297.394 159.705L297.136 158.414Z" fill="white"/>
<path d="M286.396 155.261L324.102 152.514L324.351 153.795L286.654 156.543L286.396 155.261Z" fill="white"/>
<path d="M285.215 149.361L322.913 146.614L323.696 150.513L285.999 153.261L285.215 149.361Z" fill="white"/>
</g>
<path d="M339.01 184.873L331.478 179.277L332.151 189.004C332.151 189.004 337.738 191.594 340.928 189.197L339.01 184.873Z" fill="#EEC1BB"/>
<path d="M323.42 179.536L324.425 187.648L332.151 189.004L331.487 179.277L323.42 179.536Z" fill="#EEC1BB"/>
<path d="M260.453 178.65L259.217 186.736L266.288 190.128L268.28 180.586L260.453 178.65Z" fill="#EEC1BB"/>
<path d="M350.82 148.43C354.72 149.619 359.403 163.051 359.403 163.051L344.265 173.875C344.265 173.875 338.733 162.655 340.384 157.612C342.089 152.33 346.367 147.038 350.82 148.43Z" fill="#FF2C00"/>
<path opacity="0.8" d="M350.82 148.43C354.72 149.619 359.403 163.051 359.403 163.051L344.265 173.875C344.265 173.875 338.733 162.655 340.384 157.612C342.089 152.33 346.367 147.038 350.82 148.43Z" fill="white"/>
</svg>
