<svg width="619" height="456" viewBox="0 0 619 456" fill="none" xmlns="http://www.w3.org/2000/svg">
<path d="M556.203 424.651H515.258V424.96H556.203V424.651Z" fill="#EBEBEB"/>
<path d="M409.482 428.013H398.738V428.322H409.482V428.013Z" fill="#EBEBEB"/>
<path d="M514.022 413.178H490.297V413.487H514.022V413.178Z" fill="#EBEBEB"/>
<path d="M118.25 415.255H64.8553V415.564H118.25V415.255Z" fill="#EBEBEB"/>
<path d="M137.091 415.255H129.266V415.564H137.091V415.255Z" fill="#EBEBEB"/>
<path d="M278.349 420.472H162.534V420.781H278.349V420.472Z" fill="#EBEBEB"/>
<path d="M294.73 349.621H56.0036C54.1314 349.621 52.3359 348.877 51.012 347.553C49.6882 346.229 48.9445 344.434 48.9445 342.562V6.99736C48.9608 5.13588 49.7117 3.3562 51.0338 2.04568C52.3559 0.735171 54.1421 -7.13656e-05 56.0036 5.19554e-09H294.73C295.657 5.19555e-09 296.575 0.182589 297.431 0.537346C298.288 0.892103 299.066 1.41208 299.721 2.06758C300.377 2.72309 300.897 3.50129 301.252 4.35775C301.606 5.21421 301.789 6.13215 301.789 7.05917V342.562C301.789 343.489 301.606 344.407 301.252 345.263C300.897 346.119 300.377 346.898 299.721 347.553C299.066 348.209 298.288 348.729 297.431 349.083C296.575 349.438 295.657 349.621 294.73 349.621ZM56.0036 0.247257C54.2144 0.250526 52.4994 0.962743 51.2342 2.22793C49.969 3.49311 49.2568 5.20813 49.2535 6.99736V342.562C49.2568 344.351 49.969 346.066 51.2342 347.331C52.4994 348.596 54.2144 349.308 56.0036 349.312H294.73C296.519 349.308 298.234 348.596 299.499 347.331C300.764 346.066 301.477 344.351 301.48 342.562V6.99736C301.477 5.20813 300.764 3.49311 299.499 2.22793C298.234 0.962743 296.519 0.250526 294.73 0.247257H56.0036Z" fill="#EBEBEB"/>
<path d="M562.138 349.621H323.411C321.539 349.621 319.744 348.877 318.42 347.553C317.096 346.229 316.352 344.434 316.352 342.562V6.99736C316.369 5.13588 317.12 3.3562 318.442 2.04568C319.764 0.735171 321.55 -7.13656e-05 323.411 5.19554e-09H562.138C564.01 5.19555e-09 565.805 0.743733 567.129 2.06758C568.453 3.39144 569.197 5.18696 569.197 7.05917V342.562C569.197 344.434 568.453 346.229 567.129 347.553C565.805 348.877 564.01 349.621 562.138 349.621ZM323.411 0.247257C321.622 0.250526 319.907 0.962743 318.642 2.22793C317.377 3.49311 316.665 5.20813 316.661 6.99736V342.562C316.665 344.351 317.377 346.066 318.642 347.331C319.907 348.596 321.622 349.308 323.411 349.312H562.138C563.927 349.308 565.642 348.596 566.907 347.331C568.172 346.066 568.885 344.351 568.888 342.562V6.99736C568.885 5.20813 568.172 3.49311 566.907 2.22793C565.642 0.962743 563.927 0.250526 562.138 0.247257H323.411Z" fill="#EBEBEB"/>
<path d="M618.141 404.759H0V405.068H618.141V404.759Z" fill="#EBEBEB"/>
<path d="M262.809 70.6782C261.51 70.6574 260.245 71.0952 259.236 71.9145C259.441 70.7946 259.441 69.647 259.236 68.5271C258.69 65.8659 257.266 63.4653 255.192 61.71C253.118 59.9548 250.515 58.9466 247.801 58.847C246.274 58.8276 244.771 59.2205 243.449 59.9844C242.444 58.1405 240.976 56.5904 239.19 55.4869C237.404 54.3834 235.36 53.7646 233.262 53.6917C232.05 53.6493 230.845 53.8872 229.741 54.3869C228.636 54.8866 227.662 55.6346 226.893 56.5726C226.125 57.5107 225.584 58.6134 225.312 59.7949C225.04 60.9763 225.044 62.2047 225.325 63.3842C225.409 63.8019 225.516 64.2146 225.646 64.6204C224.795 64.3937 223.919 64.2774 223.038 64.2743C221.826 64.2319 220.621 64.4698 219.516 64.9695C218.412 65.4692 217.438 66.2172 216.669 67.1552C215.901 68.0932 215.36 69.196 215.088 70.3774C214.816 71.5589 214.82 72.7873 215.101 73.9667C215.645 76.6289 217.069 79.0308 219.143 80.7864C221.217 82.542 223.821 83.5495 226.537 83.6468H265.146C265.959 83.6762 266.769 83.5174 267.511 83.1827C268.254 82.848 268.909 82.3465 269.425 81.7172C269.942 81.088 270.307 80.3479 270.491 79.5547C270.675 78.7615 270.673 77.9365 270.486 77.144C270.112 75.3639 269.153 73.7602 267.762 72.5884C266.37 71.4167 264.627 70.7442 262.809 70.6782Z" fill="#F5F5F5"/>
<path d="M199.375 78.6646C197.016 78.6223 194.717 79.4149 192.885 80.9022C193.273 78.8601 193.273 76.763 192.885 74.7208C191.129 65.0036 181.845 57.1285 172.128 57.1285C169.361 57.0976 166.637 57.8107 164.24 59.1931C160.531 52.5295 153.274 47.7822 145.696 47.7822C135.979 47.7822 129.525 55.6573 131.281 65.3745C131.429 66.1651 131.627 66.9456 131.874 67.7111C130.329 67.3034 128.738 67.0915 127.139 67.0806C117.422 67.0806 110.981 74.9557 112.724 84.6605C114.467 94.3654 123.777 102.253 133.481 102.253H203.579C210.106 102.253 214.433 96.9615 213.259 90.434C212.581 87.2088 210.848 84.3012 208.334 82.17C205.82 80.0389 202.668 78.8055 199.375 78.6646Z" fill="#F5F5F5"/>
<path d="M482.632 82.6702C480.271 82.6304 477.972 83.4275 476.142 84.9203C476.529 82.878 476.529 80.7812 476.142 78.7389C474.399 69.034 465.102 61.1589 455.385 61.1589C452.622 61.1284 449.902 61.8415 447.51 63.2235C443.801 56.5599 436.531 51.8126 428.965 51.8126C419.248 51.8126 412.795 59.6877 414.55 69.3926C414.703 70.1863 414.901 70.9706 415.144 71.7415C413.6 71.3239 412.008 71.1078 410.409 71.0986C400.704 71.0986 394.251 78.9737 396.006 88.6909C397.762 98.4081 407.096 106.32 416.813 106.32H486.898C493.425 106.32 497.752 101.029 496.578 94.5138C495.912 91.265 494.176 88.3332 491.648 86.1864C489.12 84.0396 485.946 82.8016 482.632 82.6702Z" fill="#F5F5F5"/>
<path d="M520.475 67.0313C519.489 67.0112 518.529 67.3445 517.768 67.9709C517.929 67.1255 517.929 66.2572 517.768 65.4118C517.358 63.3955 516.281 61.5758 514.712 60.2459C513.142 58.916 511.17 58.1533 509.114 58.0806C507.959 58.0637 506.822 58.363 505.825 58.946C505.065 57.5526 503.955 56.3811 502.604 55.5466C501.254 54.7121 499.71 54.2433 498.123 54.1863C497.206 54.1539 496.295 54.3336 495.459 54.7114C494.623 55.0892 493.885 55.6548 493.304 56.3643C492.722 57.0738 492.313 57.9079 492.106 58.8018C491.9 59.6956 491.903 60.625 492.115 61.5175C492.178 61.8476 492.261 62.1737 492.362 62.4942C491.722 62.3173 491.061 62.2259 490.396 62.2222C489.479 62.1872 488.566 62.3652 487.729 62.7422C486.891 63.1192 486.153 63.6849 485.571 64.395C484.989 65.1052 484.579 65.9404 484.374 66.8353C484.169 67.7303 484.174 68.6606 484.388 69.5533C484.8 71.5673 485.878 73.3842 487.447 74.7117C489.017 76.0392 490.988 76.8001 493.042 76.8721H522.243C522.86 76.8933 523.474 76.7713 524.037 76.5159C524.599 76.2604 525.095 75.8783 525.485 75.3995C525.875 74.9206 526.149 74.358 526.286 73.7556C526.423 73.1532 526.419 72.5274 526.273 71.927C525.989 70.5825 525.264 69.3713 524.214 68.4847C523.164 67.5981 521.848 67.0867 520.475 67.0313Z" fill="#F0F0F0"/>
<path d="M340.707 126.385V114.443H316.575V126.385H276.544V407.343H346.543V126.385H340.707Z" fill="#F0F0F0"/>
<path d="M309.491 141.468H299.156V151.803H309.491V141.468Z" fill="#FAFAFA"/>
<path d="M323.931 141.468H313.596V151.803H323.931V141.468Z" fill="#FAFAFA"/>
<path d="M295.051 157.057H284.716V167.393H295.051V157.057Z" fill="#FAFAFA"/>
<path d="M309.491 157.057H299.156V167.393H309.491V157.057Z" fill="#FAFAFA"/>
<path d="M338.371 157.057H328.035V167.393H338.371V157.057Z" fill="#FAFAFA"/>
<path d="M295.051 172.659H284.716V182.995H295.051V172.659Z" fill="#FAFAFA"/>
<path d="M323.931 172.659H313.596V182.995H323.931V172.659Z" fill="#FAFAFA"/>
<path d="M338.371 172.659H328.035V182.995H338.371V172.659Z" fill="#FAFAFA"/>
<path d="M295.051 203.838H284.716V214.174H295.051V203.838Z" fill="#FAFAFA"/>
<path d="M323.931 203.838H313.596V214.174H323.931V203.838Z" fill="#FAFAFA"/>
<path d="M295.051 219.428H284.716V229.763H295.051V219.428Z" fill="#FAFAFA"/>
<path d="M309.491 219.428H299.156V229.763H309.491V219.428Z" fill="#FAFAFA"/>
<path d="M338.371 219.428H328.035V229.763H338.371V219.428Z" fill="#FAFAFA"/>
<path d="M295.051 297.289H284.716V307.624H295.051V297.289Z" fill="#FAFAFA"/>
<path d="M309.491 297.289H299.156V307.624H309.491V297.289Z" fill="#FAFAFA"/>
<path d="M338.371 297.289H328.035V307.624H338.371V297.289Z" fill="#FAFAFA"/>
<path d="M295.051 312.878H284.716V323.214H295.051V312.878Z" fill="#FAFAFA"/>
<path d="M323.931 312.878H313.596V323.214H323.931V312.878Z" fill="#FAFAFA"/>
<path d="M338.371 312.878H328.035V323.214H338.371V312.878Z" fill="#FAFAFA"/>
<path d="M295.051 344.07H284.716V354.405H295.051V344.07Z" fill="#FAFAFA"/>
<path d="M323.931 344.07H313.596V354.405H323.931V344.07Z" fill="#FAFAFA"/>
<path d="M295.051 359.659H284.716V369.995H295.051V359.659Z" fill="#FAFAFA"/>
<path d="M309.491 359.659H299.156V369.995H309.491V359.659Z" fill="#FAFAFA"/>
<path d="M338.371 359.659H328.035V369.995H338.371V359.659Z" fill="#FAFAFA"/>
<path d="M338.371 235.03H328.035V245.365H338.371V235.03Z" fill="#FAFAFA"/>
<path d="M295.051 250.619H284.716V260.954H295.051V250.619Z" fill="#FAFAFA"/>
<path d="M309.491 250.619H299.156V260.954H309.491V250.619Z" fill="#FAFAFA"/>
<path d="M324.009 266.384L313.675 266.236L313.527 276.571L323.861 276.719L324.009 266.384Z" fill="#FAFAFA"/>
<path d="M338.444 266.591L328.11 266.443L327.962 276.777L338.296 276.925L338.444 266.591Z" fill="#FAFAFA"/>
<path d="M295.051 281.798H284.716V292.134H295.051V281.798Z" fill="#FAFAFA"/>
<path d="M475.029 179.929V170.273H494.55V179.929H526.966V407.343H470.307V179.929H475.029Z" fill="#F0F0F0"/>
<path d="M500.299 200.513H508.669V192.143H500.299V200.513Z" fill="#FAFAFA"/>
<path d="M488.604 200.513H496.973V192.143H488.604V200.513Z" fill="#FAFAFA"/>
<path d="M511.982 213.135H520.351V204.766H511.982V213.135Z" fill="#FAFAFA"/>
<path d="M500.299 213.135H508.669V204.766H500.299V213.135Z" fill="#FAFAFA"/>
<path d="M476.908 213.135H485.278V204.766H476.908V213.135Z" fill="#FAFAFA"/>
<path d="M511.982 225.757H520.351V217.388H511.982V225.757Z" fill="#FAFAFA"/>
<path d="M488.604 225.757H496.973V217.388H488.604V225.757Z" fill="#FAFAFA"/>
<path d="M476.908 225.757H485.278V217.388H476.908V225.757Z" fill="#FAFAFA"/>
<path d="M511.982 250.99H520.351V242.62H511.982V250.99Z" fill="#FAFAFA"/>
<path d="M488.604 250.99H496.973V242.62H488.604V250.99Z" fill="#FAFAFA"/>
<path d="M511.982 263.625H520.351V255.255H511.982V263.625Z" fill="#FAFAFA"/>
<path d="M500.299 263.625H508.669V255.255H500.299V263.625Z" fill="#FAFAFA"/>
<path d="M476.908 263.625H485.278V255.255H476.908V263.625Z" fill="#FAFAFA"/>
<path d="M511.982 326.638H520.351V318.269H511.982V326.638Z" fill="#FAFAFA"/>
<path d="M500.299 326.638H508.669V318.269H500.299V326.638Z" fill="#FAFAFA"/>
<path d="M476.908 326.638H485.278V318.269H476.908V326.638Z" fill="#FAFAFA"/>
<path d="M511.982 339.248H520.351V330.879H511.982V339.248Z" fill="#FAFAFA"/>
<path d="M488.604 339.248H496.973V330.879H488.604V339.248Z" fill="#FAFAFA"/>
<path d="M476.908 339.248H485.278V330.879H476.908V339.248Z" fill="#FAFAFA"/>
<path d="M511.982 364.506H520.351V356.136H511.982V364.506Z" fill="#FAFAFA"/>
<path d="M488.604 364.506H496.973V356.136H488.604V364.506Z" fill="#FAFAFA"/>
<path d="M511.982 377.128H520.351V368.758H511.982V377.128Z" fill="#FAFAFA"/>
<path d="M500.299 377.128H508.669V368.758H500.299V377.128Z" fill="#FAFAFA"/>
<path d="M476.908 377.128H485.278V368.758H476.908V377.128Z" fill="#FAFAFA"/>
<path d="M476.908 276.247H485.278V267.878H476.908V276.247Z" fill="#FAFAFA"/>
<path d="M511.982 288.857H520.351V280.488H511.982V288.857Z" fill="#FAFAFA"/>
<path d="M500.299 288.857H508.669V280.488H500.299V288.857Z" fill="#FAFAFA"/>
<path d="M488.678 301.607L497.047 301.487L496.927 293.119L488.558 293.238L488.678 301.607Z" fill="#FAFAFA"/>
<path d="M476.967 301.798L485.336 301.679L485.216 293.31L476.847 293.43L476.967 301.798Z" fill="#FAFAFA"/>
<path d="M511.982 314.102H520.351V305.733H511.982V314.102Z" fill="#FAFAFA"/>
<path d="M357.162 182.216H376.498H408.579V407.343H352.489V182.216H357.162Z" fill="#EBEBEB"/>
<path d="M382.184 202.59H390.467V194.307H382.184V202.59Z" fill="#FAFAFA"/>
<path d="M370.613 202.59H378.896V194.307H370.613V202.59Z" fill="#FAFAFA"/>
<path d="M393.744 215.088H402.027V206.805H393.744V215.088Z" fill="#FAFAFA"/>
<path d="M382.184 215.088H390.467V206.805H382.184V215.088Z" fill="#FAFAFA"/>
<path d="M359.041 215.088H367.324V206.805H359.041V215.088Z" fill="#FAFAFA"/>
<path d="M393.744 227.575H402.027V219.292H393.744V227.575Z" fill="#FAFAFA"/>
<path d="M370.613 227.575H378.896V219.292H370.613V227.575Z" fill="#FAFAFA"/>
<path d="M359.041 227.575H367.324V219.292H359.041V227.575Z" fill="#FAFAFA"/>
<path d="M393.744 252.573H402.027V244.289H393.744V252.573Z" fill="#FAFAFA"/>
<path d="M370.613 252.573H378.896V244.289H370.613V252.573Z" fill="#FAFAFA"/>
<path d="M393.744 265.059H402.027V256.776H393.744V265.059Z" fill="#FAFAFA"/>
<path d="M382.184 265.059H390.467V256.776H382.184V265.059Z" fill="#FAFAFA"/>
<path d="M359.041 265.059H367.324V256.776H359.041V265.059Z" fill="#FAFAFA"/>
<path d="M393.744 327.442H402.027V319.159H393.744V327.442Z" fill="#FAFAFA"/>
<path d="M382.184 327.442H390.467V319.159H382.184V327.442Z" fill="#FAFAFA"/>
<path d="M359.041 327.442H367.324V319.159H359.041V327.442Z" fill="#FAFAFA"/>
<path d="M393.744 339.941H402.027V331.658H393.744V339.941Z" fill="#FAFAFA"/>
<path d="M370.613 339.941H378.896V331.658H370.613V339.941Z" fill="#FAFAFA"/>
<path d="M359.041 339.941H367.324V331.658H359.041V339.941Z" fill="#FAFAFA"/>
<path d="M393.744 364.926H402.027V356.643H393.744V364.926Z" fill="#FAFAFA"/>
<path d="M370.613 364.926H378.896V356.643H370.613V364.926Z" fill="#FAFAFA"/>
<path d="M393.744 377.412H402.027V369.129H393.744V377.412Z" fill="#FAFAFA"/>
<path d="M382.184 377.412H390.467V369.129H382.184V377.412Z" fill="#FAFAFA"/>
<path d="M359.041 377.412H367.324V369.129H359.041V377.412Z" fill="#FAFAFA"/>
<path d="M359.041 277.558H367.324V269.275H359.041V277.558Z" fill="#FAFAFA"/>
<path d="M393.744 290.044H402.027V281.761H393.744V290.044Z" fill="#FAFAFA"/>
<path d="M382.184 290.044H390.467V281.761H382.184V290.044Z" fill="#FAFAFA"/>
<path d="M370.683 302.686L378.966 302.568L378.847 294.286L370.565 294.404L370.683 302.686Z" fill="#FAFAFA"/>
<path d="M359.096 302.842L367.378 302.724L367.259 294.442L358.977 294.56L359.096 302.842Z" fill="#FAFAFA"/>
<path d="M393.744 315.042H402.027V306.759H393.744V315.042Z" fill="#FAFAFA"/>
<path d="M98.334 182.216H117.657H149.751V407.343H93.6484V182.216H98.334Z" fill="#F0F0F0"/>
<path d="M123.344 202.59H131.627V194.307H123.344V202.59Z" fill="#FAFAFA"/>
<path d="M111.772 202.59H120.056V194.307H111.772V202.59Z" fill="#FAFAFA"/>
<path d="M134.903 215.088H143.186V206.805H134.903V215.088Z" fill="#FAFAFA"/>
<path d="M123.344 215.088H131.627V206.805H123.344V215.088Z" fill="#FAFAFA"/>
<path d="M100.201 215.088H108.484V206.805H100.201V215.088Z" fill="#FAFAFA"/>
<path d="M134.903 227.575H143.186V219.292H134.903V227.575Z" fill="#FAFAFA"/>
<path d="M111.772 227.575H120.056V219.292H111.772V227.575Z" fill="#FAFAFA"/>
<path d="M100.201 227.575H108.484V219.292H100.201V227.575Z" fill="#FAFAFA"/>
<path d="M134.903 252.573H143.186V244.289H134.903V252.573Z" fill="#FAFAFA"/>
<path d="M111.772 252.573H120.056V244.289H111.772V252.573Z" fill="#FAFAFA"/>
<path d="M134.903 265.059H143.186V256.776H134.903V265.059Z" fill="#FAFAFA"/>
<path d="M123.344 265.059H131.627V256.776H123.344V265.059Z" fill="#FAFAFA"/>
<path d="M100.201 265.059H108.484V256.776H100.201V265.059Z" fill="#FAFAFA"/>
<path d="M134.903 327.442H143.186V319.159H134.903V327.442Z" fill="#FAFAFA"/>
<path d="M123.344 327.442H131.627V319.159H123.344V327.442Z" fill="#FAFAFA"/>
<path d="M100.201 327.442H108.484V319.159H100.201V327.442Z" fill="#FAFAFA"/>
<path d="M134.903 339.941H143.186V331.658H134.903V339.941Z" fill="#FAFAFA"/>
<path d="M111.772 339.941H120.056V331.658H111.772V339.941Z" fill="#FAFAFA"/>
<path d="M100.201 339.941H108.484V331.658H100.201V339.941Z" fill="#FAFAFA"/>
<path d="M134.903 364.926H143.186V356.643H134.903V364.926Z" fill="#FAFAFA"/>
<path d="M111.772 364.926H120.056V356.643H111.772V364.926Z" fill="#FAFAFA"/>
<path d="M134.903 377.412H143.186V369.129H134.903V377.412Z" fill="#FAFAFA"/>
<path d="M123.344 377.412H131.627V369.129H123.344V377.412Z" fill="#FAFAFA"/>
<path d="M100.201 377.412H108.484V369.129H100.201V377.412Z" fill="#FAFAFA"/>
<path d="M100.201 277.558H108.484V269.275H100.201V277.558Z" fill="#FAFAFA"/>
<path d="M134.903 290.044H143.186V281.761H134.903V290.044Z" fill="#FAFAFA"/>
<path d="M123.344 290.044H131.627V281.761H123.344V290.044Z" fill="#FAFAFA"/>
<path d="M111.841 302.691L120.123 302.573L120.005 294.29L111.723 294.409L111.841 302.691Z" fill="#FAFAFA"/>
<path d="M100.266 302.847L108.548 302.729L108.429 294.446L100.147 294.565L100.266 302.847Z" fill="#FAFAFA"/>
<path d="M134.903 315.042H143.186V306.759H134.903V315.042Z" fill="#FAFAFA"/>
<path d="M208.981 407.343H270.598V146.598L208.981 153.188V407.343Z" fill="#F0F0F0"/>
<path d="M250.434 174.415H267.272V157.577H250.434V174.415Z" fill="#FAFAFA"/>
<path d="M231.37 174.415H248.208V157.577H231.37V174.415Z" fill="#F0F0F0"/>
<path d="M212.295 174.415H229.133V157.577H212.295V174.415Z" fill="#FAFAFA"/>
<path d="M250.434 193.231H267.272V176.393H250.434V193.231Z" fill="#FAFAFA"/>
<path d="M231.37 193.231H248.208V176.393H231.37V193.231Z" fill="#FAFAFA"/>
<path d="M212.295 193.231H229.133V176.393H212.295V193.231Z" fill="#FAFAFA"/>
<path d="M250.434 212.047H267.272V195.209H250.434V212.047Z" fill="#FAFAFA"/>
<path d="M231.37 212.047H248.208V195.209H231.37V212.047Z" fill="#F0F0F0"/>
<path d="M212.295 212.047H229.133V195.209H212.295V212.047Z" fill="#FAFAFA"/>
<path d="M250.434 230.851H267.272V214.013H250.434V230.851Z" fill="#F0F0F0"/>
<path d="M231.37 230.851H248.208V214.013H231.37V230.851Z" fill="#FAFAFA"/>
<path d="M212.295 230.851H229.133V214.013H212.295V230.851Z" fill="#FAFAFA"/>
<path d="M250.434 249.667H267.272V232.829H250.434V249.667Z" fill="#FAFAFA"/>
<path d="M231.37 249.667H248.208V232.829H231.37V249.667Z" fill="#FAFAFA"/>
<path d="M212.295 249.667H229.133V232.829H212.295V249.667Z" fill="#F0F0F0"/>
<path d="M250.434 268.459H267.272V251.621H250.434V268.459Z" fill="#FAFAFA"/>
<path d="M231.37 268.459H248.208V251.621H231.37V268.459Z" fill="#F0F0F0"/>
<path d="M212.295 268.459H229.133V251.621H212.295V268.459Z" fill="#FAFAFA"/>
<path d="M250.434 287.275H267.272V270.437H250.434V287.275Z" fill="#F0F0F0"/>
<path d="M231.37 287.275H248.208V270.437H231.37V287.275Z" fill="#F0F0F0"/>
<path d="M212.295 287.275H229.133V270.437H212.295V287.275Z" fill="#FAFAFA"/>
<path d="M250.434 306.091H267.272V289.253H250.434V306.091Z" fill="#FAFAFA"/>
<path d="M231.37 306.091H248.208V289.253H231.37V306.091Z" fill="#F0F0F0"/>
<path d="M212.295 306.091H229.133V289.253H212.295V306.091Z" fill="#FAFAFA"/>
<path d="M250.434 324.895H267.272V308.057H250.434V324.895Z" fill="#FAFAFA"/>
<path d="M231.37 324.895H248.208V308.057H231.37V324.895Z" fill="#FAFAFA"/>
<path d="M212.295 324.895H229.133V308.057H212.295V324.895Z" fill="#FAFAFA"/>
<path d="M250.434 343.699H267.272V326.861H250.434V343.699Z" fill="#F0F0F0"/>
<path d="M231.37 343.699H248.208V326.861H231.37V343.699Z" fill="#FAFAFA"/>
<path d="M212.295 343.699H229.133V326.861H212.295V343.699Z" fill="#F0F0F0"/>
<path d="M250.434 362.515H267.272V345.677H250.434V362.515Z" fill="#FAFAFA"/>
<path d="M231.37 362.515H248.208V345.677H231.37V362.515Z" fill="#F0F0F0"/>
<path d="M212.295 362.515H229.133V345.677H212.295V362.515Z" fill="#FAFAFA"/>
<path d="M250.434 381.319H267.272V364.481H250.434V381.319Z" fill="#F0F0F0"/>
<path d="M231.37 381.319H248.208V364.481H231.37V381.319Z" fill="#FAFAFA"/>
<path d="M212.295 381.319H229.133V364.481H212.295V381.319Z" fill="#FAFAFA"/>
<path d="M414.526 407.343H464.397V196.272L414.526 201.613V407.343Z" fill="#F0F0F0"/>
<path d="M448.078 218.797H461.715V205.161H448.078V218.797Z" fill="#FAFAFA"/>
<path d="M432.637 218.797H446.273V205.161H432.637V218.797Z" fill="#F0F0F0"/>
<path d="M417.196 218.797H430.832V205.161H417.196V218.797Z" fill="#FAFAFA"/>
<path d="M448.078 234.016H461.715V220.38H448.078V234.016Z" fill="#FAFAFA"/>
<path d="M432.637 234.016H446.273V220.38H432.637V234.016Z" fill="#FAFAFA"/>
<path d="M417.196 234.016H430.832V220.38H417.196V234.016Z" fill="#FAFAFA"/>
<path d="M448.078 249.259H461.715V235.623H448.078V249.259Z" fill="#FAFAFA"/>
<path d="M432.637 249.259H446.273V235.623H432.637V249.259Z" fill="#F0F0F0"/>
<path d="M417.196 249.259H430.832V235.623H417.196V249.259Z" fill="#FAFAFA"/>
<path d="M448.078 264.478H461.715V250.842H448.078V264.478Z" fill="#F0F0F0"/>
<path d="M432.637 264.478H446.273V250.842H432.637V264.478Z" fill="#FAFAFA"/>
<path d="M417.196 264.478H430.832V250.842H417.196V264.478Z" fill="#FAFAFA"/>
<path d="M448.078 279.697H461.715V266.06H448.078V279.697Z" fill="#FAFAFA"/>
<path d="M432.637 279.697H446.273V266.06H432.637V279.697Z" fill="#FAFAFA"/>
<path d="M417.196 279.697H430.832V266.06H417.196V279.697Z" fill="#F0F0F0"/>
<path d="M448.078 294.928H461.715V281.291H448.078V294.928Z" fill="#FAFAFA"/>
<path d="M432.637 294.928H446.273V281.291H432.637V294.928Z" fill="#F0F0F0"/>
<path d="M417.196 294.928H430.832V281.291H417.196V294.928Z" fill="#FAFAFA"/>
<path d="M448.078 310.146H461.715V296.51H448.078V310.146Z" fill="#F0F0F0"/>
<path d="M432.637 310.146H446.273V296.51H432.637V310.146Z" fill="#F0F0F0"/>
<path d="M417.196 310.146H430.832V296.51H417.196V310.146Z" fill="#FAFAFA"/>
<path d="M448.078 325.377H461.715V311.741H448.078V325.377Z" fill="#FAFAFA"/>
<path d="M432.637 325.377H446.273V311.741H432.637V325.377Z" fill="#F0F0F0"/>
<path d="M417.196 325.377H430.832V311.741H417.196V325.377Z" fill="#FAFAFA"/>
<path d="M448.078 340.596H461.715V326.96H448.078V340.596Z" fill="#FAFAFA"/>
<path d="M432.637 340.596H446.273V326.96H432.637V340.596Z" fill="#FAFAFA"/>
<path d="M417.196 340.596H430.832V326.96H417.196V340.596Z" fill="#FAFAFA"/>
<path d="M448.078 355.827H461.715V342.191H448.078V355.827Z" fill="#F0F0F0"/>
<path d="M432.637 355.827H446.273V342.191H432.637V355.827Z" fill="#FAFAFA"/>
<path d="M417.196 355.827H430.832V342.191H417.196V355.827Z" fill="#F0F0F0"/>
<path d="M448.078 371.046H461.715V357.409H448.078V371.046Z" fill="#FAFAFA"/>
<path d="M432.637 371.046H446.273V357.409H432.637V371.046Z" fill="#F0F0F0"/>
<path d="M417.196 371.046H430.832V357.409H417.196V371.046Z" fill="#FAFAFA"/>
<path d="M448.078 386.276H461.715V372.64H448.078V386.276Z" fill="#F0F0F0"/>
<path d="M432.637 386.276H446.273V372.64H432.637V386.276Z" fill="#FAFAFA"/>
<path d="M417.196 386.276H430.832V372.64H417.196V386.276Z" fill="#FAFAFA"/>
<path d="M153.744 407.837H203.628V196.767L153.744 202.107V407.837Z" fill="#F5F5F5"/>
<path d="M187.297 219.292H200.933V205.656H187.297V219.292Z" fill="#FAFAFA"/>
<path d="M171.868 219.292H185.504V205.656H171.868V219.292Z" fill="#F0F0F0"/>
<path d="M156.427 219.292H170.063V205.656H156.427V219.292Z" fill="#FAFAFA"/>
<path d="M187.297 234.51H200.933V220.874H187.297V234.51Z" fill="#FAFAFA"/>
<path d="M171.868 234.51H185.504V220.874H171.868V234.51Z" fill="#FAFAFA"/>
<path d="M156.427 234.51H170.063V220.874H156.427V234.51Z" fill="#FAFAFA"/>
<path d="M187.297 249.741H200.933V236.105H187.297V249.741Z" fill="#FAFAFA"/>
<path d="M171.868 249.741H185.504V236.105H171.868V249.741Z" fill="#F0F0F0"/>
<path d="M156.427 249.741H170.063V236.105H156.427V249.741Z" fill="#FAFAFA"/>
<path d="M187.297 264.972H200.933V251.336H187.297V264.972Z" fill="#F0F0F0"/>
<path d="M171.868 264.972H185.504V251.336H171.868V264.972Z" fill="#FAFAFA"/>
<path d="M156.427 264.972H170.063V251.336H156.427V264.972Z" fill="#FAFAFA"/>
<path d="M187.297 280.203H200.933V266.567H187.297V280.203Z" fill="#FAFAFA"/>
<path d="M171.868 280.203H185.504V266.567H171.868V280.203Z" fill="#FAFAFA"/>
<path d="M156.427 280.203H170.063V266.567H156.427V280.203Z" fill="#F0F0F0"/>
<path d="M187.297 295.422H200.933V281.786H187.297V295.422Z" fill="#FAFAFA"/>
<path d="M171.868 295.422H185.504V281.786H171.868V295.422Z" fill="#F0F0F0"/>
<path d="M156.427 295.422H170.063V281.786H156.427V295.422Z" fill="#FAFAFA"/>
<path d="M187.297 310.641H200.933V297.005H187.297V310.641Z" fill="#F0F0F0"/>
<path d="M171.868 310.641H185.504V297.005H171.868V310.641Z" fill="#F0F0F0"/>
<path d="M156.427 310.641H170.063V297.005H156.427V310.641Z" fill="#FAFAFA"/>
<path d="M187.297 325.872H200.933V312.236H187.297V325.872Z" fill="#FAFAFA"/>
<path d="M171.868 325.872H185.504V312.236H171.868V325.872Z" fill="#F0F0F0"/>
<path d="M156.427 325.872H170.063V312.236H156.427V325.872Z" fill="#FAFAFA"/>
<path d="M187.297 341.09H200.933V327.454H187.297V341.09Z" fill="#FAFAFA"/>
<path d="M171.868 341.09H185.504V327.454H171.868V341.09Z" fill="#FAFAFA"/>
<path d="M156.427 341.09H170.063V327.454H156.427V341.09Z" fill="#FAFAFA"/>
<path d="M187.297 356.321H200.933V342.685H187.297V356.321Z" fill="#F0F0F0"/>
<path d="M171.868 356.321H185.504V342.685H171.868V356.321Z" fill="#FAFAFA"/>
<path d="M156.427 356.321H170.063V342.685H156.427V356.321Z" fill="#F0F0F0"/>
<path d="M187.297 371.54H200.933V357.904H187.297V371.54Z" fill="#FAFAFA"/>
<path d="M171.868 371.54H185.504V357.904H171.868V371.54Z" fill="#F0F0F0"/>
<path d="M156.427 371.54H170.063V357.904H156.427V371.54Z" fill="#FAFAFA"/>
<path d="M187.297 386.771H200.933V373.135H187.297V386.771Z" fill="#F0F0F0"/>
<path d="M171.868 386.771H185.504V373.135H171.868V386.771Z" fill="#FAFAFA"/>
<path d="M156.427 386.771H170.063V373.135H156.427V386.771Z" fill="#FAFAFA"/>
<path d="M406.156 77.4902C404.569 77.4632 403.023 77.9974 401.792 78.9984C402.058 77.6308 402.058 76.2246 401.792 74.8569C401.116 71.607 399.37 68.6775 396.833 66.5371C394.296 64.3967 391.114 63.169 387.797 63.0504C385.933 63.0288 384.098 63.5069 382.481 64.435C381.246 62.1831 379.446 60.2905 377.26 58.9425C375.073 57.5946 372.574 56.8375 370.007 56.7454C363.455 56.7454 359.115 62.0614 360.29 68.6013C360.389 69.1375 360.526 69.6662 360.698 70.1837C359.653 69.9041 358.577 69.7587 357.496 69.7511C350.956 69.7511 346.604 75.0547 347.791 81.607C348.456 84.864 350.196 87.8032 352.732 89.9531C355.267 92.103 358.451 93.3391 361.773 93.463H409.024C410.019 93.4972 411.009 93.3014 411.917 92.8909C412.824 92.4804 413.625 91.8661 414.256 91.0959C414.888 90.3257 415.333 89.4203 415.558 88.45C415.782 87.4797 415.78 86.4707 415.552 85.5013C415.114 83.3042 413.949 81.3186 412.244 79.8651C410.539 78.4115 408.395 77.5749 406.156 77.4902Z" fill="#FAFAFA"/>
<path d="M309.071 455.83C441.455 455.83 548.773 449.564 548.773 441.835C548.773 434.106 441.455 427.84 309.071 427.84C176.686 427.84 69.3677 434.106 69.3677 441.835C69.3677 449.564 176.686 455.83 309.071 455.83Z" fill="#F5F5F5"/>
<path d="M452.541 238.43H441.86C438.877 238.426 436.017 237.24 433.908 235.131C431.799 233.022 430.613 230.162 430.61 227.179V216.486C430.613 213.503 431.799 210.643 433.908 208.534C436.017 206.425 438.877 205.239 441.86 205.235H452.541C455.525 205.239 458.386 206.425 460.497 208.533C462.608 210.642 463.797 213.502 463.804 216.486V227.179C463.797 230.163 462.608 233.023 460.497 235.132C458.386 237.24 455.525 238.426 452.541 238.43ZM441.86 208.512C439.746 208.515 437.72 209.356 436.225 210.851C434.73 212.345 433.889 214.372 433.886 216.486V227.179C433.886 229.294 434.726 231.322 436.221 232.818C437.717 234.313 439.745 235.153 441.86 235.153H452.541C454.656 235.153 456.684 234.313 458.18 232.818C459.675 231.322 460.515 229.294 460.515 227.179V216.486C460.512 214.372 459.671 212.345 458.176 210.851C456.681 209.356 454.655 208.515 452.541 208.512H441.86Z" fill="#FF7700"/>
<g opacity="0.6">
<path d="M452.541 238.43H441.86C438.877 238.426 436.017 237.24 433.908 235.131C431.799 233.022 430.613 230.162 430.61 227.179V216.486C430.613 213.503 431.799 210.643 433.908 208.534C436.017 206.425 438.877 205.239 441.86 205.235H452.541C455.525 205.239 458.386 206.425 460.497 208.533C462.608 210.642 463.797 213.502 463.804 216.486V227.179C463.797 230.163 462.608 233.023 460.497 235.132C458.386 237.24 455.525 238.426 452.541 238.43ZM441.86 208.512C439.746 208.515 437.72 209.356 436.225 210.851C434.73 212.345 433.889 214.372 433.886 216.486V227.179C433.886 229.294 434.726 231.322 436.221 232.818C437.717 234.313 439.745 235.153 441.86 235.153H452.541C454.656 235.153 456.684 234.313 458.18 232.818C459.675 231.322 460.515 229.294 460.515 227.179V216.486C460.512 214.372 459.671 212.345 458.176 210.851C456.681 209.356 454.655 208.515 452.541 208.512H441.86Z" fill="white"/>
</g>
<path d="M446.038 230.962L430.449 215.385L435.085 210.737L446.038 221.69L465.881 201.848L470.517 206.484L446.038 230.962Z" fill="#FF7700"/>
<path d="M217.042 118.77H207.597C204.979 118.75 202.475 117.702 200.625 115.852C198.774 114.001 197.726 111.497 197.706 108.879V99.4219C197.709 96.7941 198.751 94.274 200.603 92.4101C202.455 90.5462 204.969 89.4894 207.597 89.4698H217.042C219.68 89.4731 222.21 90.5227 224.075 92.3884C225.941 94.254 226.991 96.7835 226.994 99.4219V108.793C226.995 110.101 226.739 111.398 226.24 112.607C225.741 113.817 225.008 114.916 224.084 115.842C223.16 116.769 222.062 117.504 220.854 118.007C219.646 118.509 218.35 118.768 217.042 118.77ZM207.597 92.3133C205.726 92.3133 203.933 93.0553 202.609 94.3765C201.286 95.6977 200.541 97.49 200.537 99.3601V108.793C200.541 110.663 201.286 112.455 202.609 113.777C203.933 115.098 205.726 115.84 207.597 115.84H217.042C218.911 115.84 220.703 115.097 222.025 113.776C223.346 112.454 224.089 110.662 224.089 108.793V99.3354C224.089 97.4665 223.346 95.6741 222.025 94.3525C220.703 93.031 218.911 92.2886 217.042 92.2886L207.597 92.3133Z" fill="#FF7700"/>
<g opacity="0.6">
<path d="M217.042 118.77H207.597C204.979 118.75 202.475 117.702 200.625 115.852C198.774 114.001 197.726 111.497 197.706 108.879V99.4219C197.709 96.7941 198.751 94.274 200.603 92.4101C202.455 90.5462 204.969 89.4894 207.597 89.4698H217.042C219.68 89.4731 222.21 90.5227 224.075 92.3884C225.941 94.254 226.991 96.7835 226.994 99.4219V108.793C226.995 110.101 226.739 111.398 226.24 112.607C225.741 113.817 225.008 114.916 224.084 115.842C223.16 116.769 222.062 117.504 220.854 118.007C219.646 118.509 218.35 118.768 217.042 118.77ZM207.597 92.3133C205.726 92.3133 203.933 93.0553 202.609 94.3765C201.286 95.6977 200.541 97.49 200.537 99.3601V108.793C200.541 110.663 201.286 112.455 202.609 113.777C203.933 115.098 205.726 115.84 207.597 115.84H217.042C218.911 115.84 220.703 115.097 222.025 113.776C223.346 112.454 224.089 110.662 224.089 108.793V99.3354C224.089 97.4665 223.346 95.6741 222.025 94.3525C220.703 93.031 218.911 92.2886 217.042 92.2886L207.597 92.3133Z" fill="white"/>
</g>
<path d="M211.281 112.156L197.509 98.3835L201.601 94.279L211.281 103.959L228.824 86.4163L232.928 90.5207L211.281 112.156Z" fill="#FF7700"/>
<path d="M494.513 104.59C484.795 102.287 475.578 98.2312 467.315 92.6223C459.053 98.2334 449.835 102.289 440.117 104.59C436.565 105.434 432.965 106.058 429.336 106.456C429.336 106.617 429.336 106.79 429.336 106.951C429.336 140.33 444.32 163.634 467.327 181.857C490.334 163.634 505.318 140.343 505.318 106.951C505.318 106.79 505.318 106.617 505.318 106.456C501.681 106.058 498.073 105.435 494.513 104.59Z" fill="#FF7700"/>
<path opacity="0.1" d="M467.315 92.6223C459.053 98.2334 449.835 102.289 440.117 104.59C436.565 105.434 432.965 106.058 429.336 106.456C429.336 106.617 429.336 106.79 429.336 106.951C429.336 140.33 444.32 163.634 467.327 181.857L467.315 92.6223Z" fill="black"/>
<g opacity="0.5">
<path d="M467.315 175.799L466.301 174.934C445.569 157.181 435.394 137.178 434.158 111.958L434.096 110.573L435.456 110.338C437.409 110.004 439.363 109.609 441.242 109.102C450.158 106.99 458.686 103.485 466.511 98.7172L467.327 98.2103L468.143 98.7172C475.969 103.483 484.497 106.988 493.413 109.102C495.317 109.559 497.258 109.955 499.199 110.338L500.571 110.573L500.497 111.958C499.26 137.178 489.073 157.193 468.353 174.934L467.315 175.799ZM437.347 113.182C438.782 136.424 448.338 155.067 467.315 171.67C486.292 155.079 495.848 136.424 497.282 113.182C495.737 112.897 494.192 112.564 492.671 112.193C483.748 110.077 475.198 106.617 467.315 101.932C459.433 106.619 450.883 110.079 441.959 112.193C440.45 112.564 438.88 112.885 437.347 113.182Z" fill="white"/>
</g>
<path opacity="0.9" d="M467.315 171.67C448.338 155.067 438.782 136.424 437.347 113.182C438.905 112.885 440.451 112.564 441.959 112.193C450.883 110.079 459.433 106.619 467.315 101.932V98.2228L466.499 98.7297C458.674 103.498 450.146 107.002 441.229 109.114C439.35 109.572 437.397 109.967 435.444 110.351L434.084 110.586L434.146 111.97C435.382 137.19 445.569 157.193 466.289 174.946L467.303 175.812L467.315 171.67Z" fill="#F0F0F0"/>
<g opacity="0.2">
<path d="M465.164 151.618L448.536 134.977L453.481 130.032L465.164 141.715L486.341 120.538L491.299 125.483L465.164 151.618Z" fill="#FF7700"/>
</g>
<g opacity="0.9">
<path d="M465.164 151.618L448.536 134.977L453.481 130.032L465.164 141.715L486.341 120.538L491.299 125.483L465.164 151.618Z" fill="white"/>
</g>
<path d="M395.66 91.4106H352.477V131.553H395.66V91.4106Z" fill="#FF7700"/>
<path opacity="0.3" d="M395.66 91.4106H352.477V131.553H395.66V91.4106Z" fill="white"/>
<path d="M414.822 91.4106H393.237V131.553H414.822V91.4106Z" fill="#FF7700"/>
<path d="M380.837 99.2856H367.275V131.553H380.837V99.2856Z" fill="#263238"/>
<path d="M370.662 99.2856H367.275V131.553H370.662V99.2856Z" fill="#FF7700"/>
<path d="M369.092 126.2H256.628V445.655H369.092V126.2Z" fill="#FF7700"/>
<path opacity="0.6" d="M369.092 126.2H256.628V445.655H369.092V126.2Z" fill="white"/>
<path d="M367.411 126.2V173.438H342.599V183.909H367.411V224.398H342.599V234.869H367.411V275.357H342.599V285.828H367.411V326.317H342.599V336.788H367.411V377.276H342.599V387.748H367.411V445.655H420.583V126.2H367.411Z" fill="#FF7700"/>
<path opacity="0.2" d="M367.411 126.2V173.438H342.599V183.909H367.411V224.398H342.599V234.869H367.411V275.357H342.599V285.828H367.411V326.317H342.599V336.788H367.411V377.276H342.599V387.748H367.411V445.655H420.583V126.2H367.411Z" fill="white"/>
<path d="M343.996 377.276H240.877V387.747H343.996V377.276Z" fill="#FF7700"/>
<path d="M343.996 326.317H240.877V336.788H343.996V326.317Z" fill="#FF7700"/>
<path d="M343.996 275.357H240.877V285.828H343.996V275.357Z" fill="#FF7700"/>
<path d="M343.996 224.397H240.877V234.869H343.996V224.397Z" fill="#FF7700"/>
<path d="M343.996 173.438H240.877V183.909H343.996V173.438Z" fill="#FF7700"/>
<g opacity="0.4">
<path d="M343.996 377.276H240.877V387.748H343.996V377.276Z" fill="white"/>
<path d="M343.996 326.317H240.877V336.788H343.996V326.317Z" fill="white"/>
<path d="M343.996 275.357H240.877V285.828H343.996V275.357Z" fill="white"/>
<path d="M343.996 224.397H240.877V234.869H343.996V224.397Z" fill="white"/>
<path d="M343.996 173.438H240.877V183.909H343.996V173.438Z" fill="white"/>
</g>
<path d="M345.714 399.196H280.018V445.655H345.714V399.196Z" fill="#FF7700"/>
<path d="M293.37 138.525H266.147V165.748H293.37V138.525Z" fill="#FF7700"/>
<path d="M325.835 138.525H298.612V165.748H325.835V138.525Z" fill="#FF7700"/>
<path opacity="0.7" d="M358.299 138.525H331.076V165.748H358.299V138.525Z" fill="white"/>
<path opacity="0.7" d="M293.37 190.536H266.147V217.759H293.37V190.536Z" fill="white"/>
<path d="M325.835 190.536H298.612V217.759H325.835V190.536Z" fill="#FF7700"/>
<path opacity="0.7" d="M358.299 190.536H331.076V217.759H358.299V190.536Z" fill="white"/>
<path opacity="0.7" d="M293.37 241.495H266.147V268.718H293.37V241.495Z" fill="white"/>
<path opacity="0.7" d="M325.835 241.495H298.612V268.718H325.835V241.495Z" fill="white"/>
<path d="M358.299 241.495H331.076V268.718H358.299V241.495Z" fill="#FF7700"/>
<path opacity="0.7" d="M293.37 292.455H266.147V319.678H293.37V292.455Z" fill="white"/>
<path d="M325.835 292.455H298.612V319.678H325.835V292.455Z" fill="#FF7700"/>
<path opacity="0.7" d="M358.299 292.455H331.076V319.678H358.299V292.455Z" fill="white"/>
<path d="M293.37 343.427H266.147V370.65H293.37V343.427Z" fill="#FF7700"/>
<path d="M325.835 343.427H298.612V370.65H325.835V343.427Z" fill="#FF7700"/>
<path opacity="0.7" d="M358.299 343.427H331.076V370.65H358.299V343.427Z" fill="white"/>
<path d="M269.015 138.525H266.147V165.748H269.015V138.525Z" fill="#FF7700"/>
<path d="M301.48 138.525H298.612V165.748H301.48V138.525Z" fill="#FF7700"/>
<path d="M333.945 138.525H331.076V165.748H333.945V138.525Z" fill="#FF7700"/>
<path d="M269.015 190.536H266.147V217.759H269.015V190.536Z" fill="#FF7700"/>
<path d="M301.48 190.536H298.612V217.759H301.48V190.536Z" fill="#FF7700"/>
<path d="M333.945 190.536H331.076V217.759H333.945V190.536Z" fill="#FF7700"/>
<path d="M269.015 241.495H266.147V268.718H269.015V241.495Z" fill="#FF7700"/>
<path d="M301.48 241.495H298.612V268.718H301.48V241.495Z" fill="#FF7700"/>
<path d="M333.945 241.495H331.076V268.718H333.945V241.495Z" fill="#FF7700"/>
<path d="M269.015 292.455H266.147V319.678H269.015V292.455Z" fill="#FF7700"/>
<path d="M301.48 292.455H298.612V319.678H301.48V292.455Z" fill="#FF7700"/>
<path d="M333.945 292.455H331.076V319.678H333.945V292.455Z" fill="#FF7700"/>
<path d="M269.015 343.427H266.147V370.65H269.015V343.427Z" fill="#FF7700"/>
<path d="M301.48 343.427H298.612V370.65H301.48V343.427Z" fill="#FF7700"/>
<path d="M333.945 343.427H331.076V370.65H333.945V343.427Z" fill="#FF7700"/>
<g opacity="0.2">
<path d="M269.015 138.525H266.147V165.748H269.015V138.525Z" fill="black"/>
<path d="M301.48 138.525H298.612V165.748H301.48V138.525Z" fill="black"/>
<path d="M333.945 138.525H331.076V165.748H333.945V138.525Z" fill="black"/>
<path d="M269.015 190.536H266.147V217.759H269.015V190.536Z" fill="black"/>
<path d="M301.48 190.536H298.612V217.759H301.48V190.536Z" fill="black"/>
<path d="M333.945 190.536H331.076V217.759H333.945V190.536Z" fill="black"/>
<path d="M269.015 241.495H266.147V268.718H269.015V241.495Z" fill="black"/>
<path d="M301.48 241.495H298.612V268.718H301.48V241.495Z" fill="black"/>
<path d="M333.945 241.495H331.076V268.718H333.945V241.495Z" fill="black"/>
<path d="M269.015 292.455H266.147V319.678H269.015V292.455Z" fill="black"/>
<path d="M301.48 292.455H298.612V319.678H301.48V292.455Z" fill="black"/>
<path d="M333.945 292.455H331.076V319.678H333.945V292.455Z" fill="black"/>
<path d="M269.015 343.427H266.147V370.65H269.015V343.427Z" fill="black"/>
<path d="M301.48 343.427H298.612V370.65H301.48V343.427Z" fill="black"/>
<path d="M333.945 343.427H331.076V370.65H333.945V343.427Z" fill="black"/>
</g>
<path opacity="0.4" d="M342.574 402.336H312.866V445.655H342.574V402.336Z" fill="white"/>
<path opacity="0.7" d="M312.866 402.336H283.158V445.655H312.866V402.336Z" fill="white"/>
<path d="M286.298 402.336H283.158V445.655H286.298V402.336Z" fill="#FF7700"/>
<path opacity="0.2" d="M286.298 402.336H283.158V445.655H286.298V402.336Z" fill="black"/>
<path d="M124.865 190.561C125.376 188.168 126.126 185.832 127.102 183.588C128.128 181.115 129.291 178.643 130.564 176.17C131.837 173.698 133.173 171.225 134.532 168.753C135.892 166.28 137.388 163.807 138.773 161.508L127.844 154.535C126.113 157.169 124.642 159.715 123.146 162.373C121.65 165.031 120.278 167.714 118.955 170.471C117.632 173.228 116.483 176.096 115.358 179.125C114.165 182.319 113.336 185.636 112.885 189.015C112.774 190.17 112.745 191.331 112.799 192.489H124.593C124.626 191.839 124.717 191.194 124.865 190.561Z" fill="#CE7A63"/>
<path d="M214.569 163.412C211.826 168.211 208.757 172.817 205.384 177.196C204.619 178.167 203.793 179.088 202.911 179.953C202.231 180.652 201.452 181.248 200.599 181.721H200.463C200.463 181.721 200.018 181.449 199.499 180.93C197.858 179.316 196.418 177.51 195.209 175.552C193.837 173.351 192.502 170.978 191.253 168.53C190.004 166.082 188.78 163.585 187.643 161.038C186.506 158.491 185.356 155.858 184.33 153.41L172.301 158.034C173.401 161.001 174.588 163.671 175.836 166.441C177.085 169.21 178.457 171.893 179.929 174.575C181.431 177.317 183.082 179.975 184.874 182.537C185.813 183.847 186.815 185.146 187.927 186.444C189.127 187.851 190.465 189.135 191.92 190.276C192.797 190.962 193.736 191.562 194.727 192.069C195.986 192.707 197.345 193.125 198.745 193.305C200.318 193.479 201.909 193.302 203.406 192.786C204.588 192.375 205.701 191.787 206.706 191.043C208.272 189.89 209.67 188.525 210.86 186.988C211.887 185.674 212.82 184.29 213.654 182.846C215.218 180.144 216.57 177.325 217.697 174.415C218.818 171.593 219.755 168.703 220.503 165.761L214.569 163.412Z" fill="#CE7A63"/>
<path d="M197.929 173.858L184.503 183.885C184.503 183.885 183.984 183.316 183.131 182.327C182.512 181.61 181.709 180.646 180.782 179.521C175.565 173.166 167.937 161.557 167.875 155.883C167.776 147.402 176.529 146.153 186.419 154.82C190.672 158.528 192.897 164.772 195.073 168.616C195.79 169.853 196.396 170.99 196.866 171.856C197.558 173.079 197.929 173.858 197.929 173.858Z" fill="#263238"/>
<path opacity="0.5" d="M197.929 173.858L184.503 183.885C184.503 183.885 183.984 183.316 183.131 182.327C182.512 181.61 181.709 180.646 180.782 179.521C175.565 173.166 167.937 161.557 167.875 155.883C167.776 147.402 176.529 146.153 186.419 154.82C190.672 158.528 192.897 164.772 195.073 168.616C195.79 169.853 196.396 170.99 196.866 171.856C197.558 173.079 197.929 173.858 197.929 173.858Z" fill="white"/>
<path opacity="0.2" d="M167.788 156.859C170.817 154.844 173.03 160.037 179.039 164.425C181.709 166.391 187.569 179.137 187.087 181.956L184.503 183.884C184.503 183.884 167.714 165.303 167.788 156.859Z" fill="black"/>
<path d="M213.531 165.452L218.315 156.798L222.692 168.184C222.692 168.184 217.277 172.709 214.508 169.667L213.531 165.452Z" fill="#CE7A63"/>
<path d="M223.866 156.699L225.795 165.217L222.692 168.134L218.315 156.748L223.866 156.699Z" fill="#CE7A63"/>
<path d="M214.31 164.784C214.219 163.216 213.868 161.675 213.271 160.222C212.529 158.541 210.799 157.131 211.157 156.204C211.33 155.796 212.393 155.598 212.826 155.697C213.851 156.173 214.712 156.944 215.299 157.91C215.88 158.924 217.499 162.472 217.499 162.472L214.31 164.784Z" fill="#CE7A63"/>
<path d="M167.096 109.399C167.096 109.399 170.805 111.129 169.086 113.899C169.51 114.187 169.869 114.559 170.141 114.993C170.413 115.426 170.592 115.912 170.668 116.418C170.743 116.924 170.713 117.441 170.579 117.935C170.446 118.429 170.211 118.89 169.89 119.289C169.89 119.289 170.1 124.382 167.096 121.428C164.092 118.473 163.189 110.178 163.189 110.178L167.096 109.399Z" fill="#263238"/>
<path d="M141.752 164.636C139.622 170.546 137.145 176.325 134.334 181.944C133.729 183.18 133.098 184.33 132.703 185.245C131.899 186.827 131.392 187.791 131.392 187.791L114.171 178.26C114.171 178.26 114.393 177.53 114.776 176.319C115.086 175.404 115.469 174.192 116.013 172.808C118.881 164.636 124.741 150.048 130.477 149.219C139.057 147.909 145.238 154.325 141.752 164.636Z" fill="#263238"/>
<path opacity="0.5" d="M141.752 164.636C139.622 170.546 137.145 176.325 134.334 181.944C133.729 183.18 133.098 184.33 132.703 185.245C131.899 186.827 131.392 187.791 131.392 187.791L114.171 178.26C114.171 178.26 114.393 177.53 114.776 176.319C115.086 175.404 115.469 174.192 116.013 172.808C118.881 164.636 124.741 150.048 130.477 149.219C139.057 147.909 145.238 154.325 141.752 164.636Z" fill="white"/>
<path d="M205.891 435.122L213.976 432.501L208.957 413.438L200.871 416.059L205.891 435.122Z" fill="#CE7A63"/>
<path d="M214.099 431.463L205.013 434.405C204.935 434.426 204.863 434.463 204.8 434.513C204.736 434.562 204.684 434.624 204.645 434.694C204.606 434.764 204.581 434.841 204.572 434.921C204.563 435.001 204.57 435.082 204.592 435.159L206.484 442.49C206.606 442.867 206.872 443.181 207.223 443.364C207.575 443.547 207.984 443.584 208.363 443.467C211.516 442.379 212.962 441.711 217.017 440.413C219.49 439.61 230.01 436.482 233.398 435.382C236.785 434.281 235.611 430.956 234.065 431.116C227.179 431.846 218.575 432.563 215.719 431.5C215.199 431.306 214.628 431.293 214.099 431.463Z" fill="#263238"/>
<path opacity="0.2" d="M200.871 416.059L208.957 413.438L211.54 423.266L203.455 425.887L200.871 416.059Z" fill="black"/>
<path d="M181.165 223.062C181.165 223.062 192.638 292.294 196 316.39C199.709 342.821 214.359 420.126 214.359 420.126L199.351 424.268C199.351 424.268 178.025 349.361 171.843 323.659C165.291 295.781 150.827 223.062 150.827 223.062H181.165Z" fill="#263238"/>
<path opacity="0.4" d="M162.732 251.435C168.604 266.097 169.272 290.996 166.886 301.245C163.288 284.469 159.159 264.404 155.982 248.802C157.119 244.784 159.171 242.521 162.732 251.435Z" fill="black"/>
<path d="M199.017 424.564L215.088 420.138L214.779 413.586L196.68 419.842L199.017 424.564Z" fill="#263238"/>
<path d="M217.425 431.908C216.69 432.115 215.936 432.252 215.175 432.316C215.136 432.318 215.098 432.31 215.063 432.293C215.028 432.275 214.999 432.249 214.977 432.217C214.956 432.183 214.945 432.145 214.945 432.105C214.945 432.066 214.956 432.028 214.977 431.994C215.175 431.735 216.955 429.423 218.068 429.522C218.194 429.527 218.316 429.565 218.422 429.632C218.528 429.699 218.615 429.793 218.674 429.905C218.787 430.063 218.856 430.248 218.873 430.442C218.891 430.635 218.856 430.83 218.773 431.005C218.446 431.458 217.968 431.778 217.425 431.908ZM215.595 431.908C217.141 431.722 218.192 431.339 218.451 430.844C218.499 430.727 218.516 430.6 218.501 430.475C218.486 430.349 218.439 430.23 218.365 430.127C218.34 430.069 218.299 430.019 218.246 429.984C218.193 429.948 218.131 429.93 218.068 429.93C217.474 429.855 216.349 430.968 215.595 431.871V431.908Z" fill="#FF7700"/>
<path d="M215.212 432.303H215.113C215.08 432.298 215.048 432.284 215.022 432.262C214.996 432.241 214.976 432.212 214.965 432.18C214.965 432.081 213.988 429.818 214.545 428.768C214.615 428.631 214.716 428.512 214.841 428.422C214.966 428.332 215.11 428.272 215.262 428.248C215.424 428.196 215.599 428.202 215.757 428.265C215.915 428.328 216.046 428.445 216.127 428.595C216.597 429.41 215.942 431.487 215.286 432.229C215.272 432.262 215.245 432.288 215.212 432.303ZM215.212 428.669C215.136 428.692 215.065 428.73 215.003 428.781C214.942 428.832 214.891 428.895 214.854 428.965C214.661 429.89 214.77 430.852 215.163 431.71C215.718 430.85 215.926 429.812 215.744 428.805C215.682 428.693 215.583 428.582 215.299 428.644L215.212 428.669Z" fill="#FF7700"/>
<path d="M124.543 438.843H133.036L135.867 419.161H127.374L124.543 438.843Z" fill="#CE7A63"/>
<path d="M133.58 437.854H124.024C123.859 437.852 123.7 437.91 123.575 438.017C123.45 438.124 123.368 438.273 123.344 438.435L122.219 445.989C122.194 446.186 122.212 446.387 122.272 446.576C122.332 446.766 122.432 446.94 122.566 447.087C122.7 447.235 122.865 447.351 123.048 447.428C123.231 447.505 123.429 447.541 123.628 447.534C126.954 447.472 128.573 447.275 132.764 447.275C135.348 447.275 146.363 447.547 149.874 447.547C153.386 447.547 153.583 444.011 152.162 443.702C145.51 442.268 137.326 440.29 135.039 438.398C134.635 438.045 134.117 437.852 133.58 437.854Z" fill="#263238"/>
<path opacity="0.2" d="M127.362 419.161H135.868L134.409 429.311H125.903L127.362 419.161Z" fill="black"/>
<path d="M165.773 222.63C165.773 222.63 160.902 287.584 157.391 311.926C153.559 338.568 138.266 426.901 138.266 426.901H122.701C122.701 426.901 130.7 340.757 132.072 314.399C133.556 285.767 136.436 222.692 136.436 222.692L165.773 222.63Z" fill="#263238"/>
<path d="M122.071 426.864H138.896L140.343 420.954L121.7 421.869L122.071 426.864Z" fill="#263238"/>
<path d="M136.461 439.338C135.706 439.321 134.955 439.218 134.223 439.029C134.187 439.023 134.154 439.005 134.129 438.978C134.104 438.951 134.09 438.917 134.087 438.88C134.08 438.841 134.086 438.801 134.104 438.765C134.122 438.729 134.151 438.7 134.186 438.682C134.47 438.485 137.017 436.84 138.019 437.248C138.134 437.296 138.234 437.374 138.308 437.474C138.383 437.574 138.428 437.693 138.439 437.817C138.471 438.011 138.456 438.21 138.396 438.397C138.336 438.584 138.232 438.754 138.093 438.893C137.618 439.228 137.04 439.386 136.461 439.338ZM134.792 438.744C136.288 439.053 137.413 439.004 137.833 438.608C137.925 438.519 137.993 438.407 138.03 438.283C138.067 438.16 138.071 438.029 138.043 437.904C138.039 437.843 138.019 437.784 137.984 437.734C137.949 437.684 137.901 437.644 137.845 437.619C137.302 437.397 135.83 438.114 134.755 438.744H134.792Z" fill="#FF7700"/>
<path d="M134.26 439.041H134.174C134.146 439.025 134.123 439.001 134.108 438.973C134.092 438.945 134.085 438.912 134.087 438.88C134.087 438.781 134.087 436.334 135.039 435.505C135.154 435.399 135.292 435.319 135.441 435.272C135.591 435.225 135.749 435.212 135.905 435.233C136.068 435.237 136.225 435.299 136.347 435.408C136.469 435.516 136.549 435.665 136.572 435.827C136.683 436.754 135.262 438.534 134.372 439.041H134.26ZM135.731 435.592C135.567 435.593 135.408 435.654 135.286 435.765C134.752 436.565 134.475 437.51 134.495 438.472C135.286 437.842 136.251 436.494 136.177 435.888C136.177 435.765 136.102 435.629 135.818 435.604L135.731 435.592Z" fill="#FF7700"/>
<path d="M181.165 223.062H135.694C135.373 218.995 136.313 205.755 135.62 188.978C135.191 176.507 133.677 164.098 131.095 151.89C130.898 150.975 130.687 150.072 130.465 149.158C130.465 149.158 132.777 148.688 136.078 148.206C138.822 147.798 142.259 147.39 145.634 147.229C152.066 146.864 158.513 146.864 164.945 147.229C167.912 147.501 170.817 147.995 173.129 148.465C176.096 149.059 177.839 149.578 177.839 149.578C177.839 149.578 189.04 175.255 181.165 223.062Z" fill="#263238"/>
<path opacity="0.5" d="M181.165 223.062H135.694C135.373 218.995 136.313 205.755 135.62 188.978C135.191 176.507 133.677 164.098 131.095 151.89C130.898 150.975 130.687 150.072 130.465 149.158C130.465 149.158 132.777 148.688 136.078 148.206C138.822 147.798 142.259 147.39 145.634 147.229C152.066 146.864 158.513 146.864 164.945 147.229C167.912 147.501 170.817 147.995 173.129 148.465C176.096 149.059 177.839 149.578 177.839 149.578C177.839 149.578 189.04 175.255 181.165 223.062Z" fill="white"/>
<path d="M152.359 158.479L157.131 152.471L158.257 151.012L160.803 152.372L166.898 157.008C171.843 152.854 169.371 149.133 168.369 147.649C167.257 147.488 166.107 147.34 164.932 147.229C158.497 146.864 152.045 146.864 145.609 147.229C144.212 147.229 142.791 147.402 141.418 147.538C142.405 150.008 143.883 152.252 145.764 154.133C147.645 156.014 149.889 157.493 152.359 158.479Z" fill="#263238"/>
<path opacity="0.7" d="M152.359 158.479L157.131 152.471L158.257 151.012L160.803 152.372L166.898 157.008C171.843 152.854 169.371 149.133 168.369 147.649C167.257 147.488 166.107 147.34 164.932 147.229C158.497 146.864 152.045 146.864 145.609 147.229C144.212 147.229 142.791 147.402 141.418 147.538C142.405 150.008 143.883 152.252 145.764 154.133C147.645 156.014 149.889 157.493 152.359 158.479Z" fill="white"/>
<path d="M146.042 125.557L151.21 129.847L158.257 135.694C158.046 136.632 157.893 137.581 157.799 138.538C157.428 142.358 158.417 145.832 163.981 147.192C163.981 147.192 170.644 151.605 160.754 152.409C160.722 153.484 160.556 154.552 160.259 155.586C159.39 154.381 158.314 153.338 157.082 152.508C146.265 152.322 144.831 147.315 144.831 147.315C149.096 143.124 147.476 131.788 146.042 125.557Z" fill="#CE7A63"/>
<path opacity="0.2" d="M158.244 135.694C158.034 136.632 157.881 137.582 157.787 138.538C155.166 138.006 151.605 135.212 151.296 132.53C151.164 131.642 151.13 130.742 151.197 129.847L158.244 135.694Z" fill="black"/>
<path d="M143.903 116.606C145.708 124.864 146.376 129.785 151.222 133.556C152.796 134.796 154.678 135.583 156.667 135.832C158.655 136.081 160.674 135.782 162.505 134.968C164.336 134.153 165.91 132.855 167.056 131.211C168.203 129.568 168.879 127.643 169.012 125.643C169.655 117.941 166.54 105.714 157.886 103.39C156.018 102.839 154.038 102.787 152.144 103.241C150.249 103.694 148.508 104.637 147.092 105.975C145.677 107.313 144.637 108.999 144.078 110.865C143.518 112.73 143.458 114.71 143.903 116.606Z" fill="#CE7A63"/>
<path d="M154.795 119.573C154.894 120.253 155.351 120.809 155.796 120.711C156.242 120.612 156.513 120.068 156.402 119.388C156.291 118.708 155.858 118.151 155.413 118.25C154.968 118.349 154.696 118.893 154.795 119.573Z" fill="#263238"/>
<path d="M162.485 118.683C162.596 119.363 163.041 119.919 163.486 119.821C163.931 119.722 164.203 119.178 164.104 118.498C164.005 117.818 163.548 117.261 163.103 117.36C162.658 117.459 162.386 117.978 162.485 118.683Z" fill="#263238"/>
<path d="M161.174 119.289C162.308 121.27 163.7 123.091 165.316 124.704C164.896 125.09 164.395 125.379 163.85 125.55C163.305 125.721 162.729 125.77 162.163 125.693L161.174 119.289Z" fill="#BA4D3C"/>
<path d="M160.593 128.165C159.797 128.179 159.007 128.029 158.271 127.725C157.535 127.421 156.87 126.969 156.316 126.397C156.296 126.378 156.28 126.355 156.27 126.33C156.26 126.305 156.255 126.278 156.255 126.25C156.256 126.223 156.262 126.196 156.274 126.171C156.286 126.147 156.302 126.124 156.323 126.106C156.344 126.088 156.368 126.075 156.394 126.067C156.42 126.058 156.447 126.056 156.474 126.059C156.502 126.062 156.528 126.07 156.552 126.084C156.575 126.097 156.596 126.116 156.612 126.138C157.226 126.745 157.971 127.203 158.79 127.478C159.608 127.752 160.479 127.835 161.335 127.72C161.361 127.72 161.387 127.725 161.411 127.735C161.435 127.745 161.456 127.76 161.475 127.778C161.493 127.797 161.508 127.818 161.518 127.842C161.528 127.866 161.533 127.892 161.533 127.918C161.533 127.944 161.528 127.97 161.518 127.994C161.508 128.018 161.493 128.04 161.475 128.058C161.456 128.076 161.435 128.091 161.411 128.101C161.387 128.111 161.361 128.116 161.335 128.116C161.089 128.148 160.841 128.164 160.593 128.165Z" fill="#263238"/>
<path d="M153.114 117.447C153.049 117.465 152.98 117.465 152.916 117.447C152.824 117.395 152.755 117.309 152.725 117.207C152.695 117.106 152.706 116.997 152.755 116.903C153.052 116.341 153.482 115.862 154.008 115.506C154.534 115.15 155.14 114.929 155.772 114.863C155.825 114.86 155.878 114.867 155.928 114.885C155.978 114.902 156.024 114.93 156.063 114.965C156.102 115.001 156.134 115.044 156.156 115.093C156.178 115.141 156.19 115.193 156.192 115.246C156.195 115.299 156.188 115.352 156.17 115.402C156.153 115.452 156.125 115.498 156.089 115.538C156.054 115.577 156.01 115.609 155.962 115.631C155.914 115.653 155.862 115.665 155.809 115.667C155.315 115.725 154.843 115.903 154.433 116.185C154.024 116.467 153.69 116.845 153.46 117.286C153.42 117.34 153.368 117.383 153.307 117.411C153.247 117.439 153.18 117.451 153.114 117.447Z" fill="#263238"/>
<path d="M166.465 115.629C166.4 115.628 166.337 115.611 166.279 115.581C166.221 115.551 166.171 115.508 166.132 115.456C165.861 115.031 165.499 114.673 165.07 114.407C164.642 114.142 164.16 113.977 163.659 113.923C163.552 113.92 163.45 113.876 163.374 113.8C163.298 113.725 163.254 113.623 163.251 113.515C163.251 113.407 163.294 113.303 163.371 113.227C163.447 113.15 163.551 113.107 163.659 113.107C164.303 113.153 164.927 113.348 165.483 113.676C166.038 114.004 166.51 114.457 166.861 114.999C166.92 115.088 166.943 115.197 166.925 115.303C166.906 115.409 166.848 115.503 166.762 115.568C166.719 115.597 166.671 115.617 166.62 115.628C166.569 115.639 166.517 115.639 166.465 115.629Z" fill="#263238"/>
<path d="M141.666 147.043C141.877 147.014 142.092 147.045 142.287 147.133C142.481 147.22 142.647 147.361 142.766 147.538C146.092 152.631 169.494 188.953 170.644 203.616C171.089 209.29 166.218 222.073 163.115 229.578C162.434 231.211 161.224 232.569 159.68 233.434C158.136 234.299 156.346 234.622 154.597 234.35L136.449 231.506C136.05 231.444 135.669 231.302 135.327 231.088C134.985 230.875 134.69 230.595 134.459 230.265C134.228 229.935 134.066 229.561 133.983 229.167C133.9 228.773 133.898 228.366 133.976 227.97C134.645 224.346 134.959 220.665 134.916 216.98C134.916 207.46 134.384 181.906 134.384 181.906C134.384 181.906 141.802 167.578 132.95 149.763C132.872 149.603 132.833 149.426 132.837 149.248C132.841 149.07 132.887 148.895 132.971 148.738C133.056 148.581 133.176 148.446 133.323 148.345C133.47 148.244 133.638 148.179 133.815 148.156L141.666 147.043Z" fill="#FF7700"/>
<path opacity="0.1" d="M170.607 203.616C170.063 196.68 164.537 184.898 158.516 173.871C155.697 185.48 153.311 197.904 153.991 204.531C154.535 209.859 159.851 220.924 163.622 228.23C166.75 220.652 171.064 208.932 170.607 203.616Z" fill="black"/>
<path opacity="0.6" d="M165.786 188.273C165.007 186.543 164.166 184.762 163.313 182.957C159.344 183.081 155.45 183.106 151.803 183.069C149.683 170.643 145.834 158.575 140.368 147.216L134.705 148.008C140.17 159.06 144.041 170.831 146.203 182.97C141.258 182.846 137.042 182.648 134.421 182.5C134.421 183.44 134.483 185.38 134.532 187.902C137.413 188.076 141.826 188.286 147.081 188.397C149.221 203.187 148.862 218.232 146.017 232.903L151.346 233.744C154.238 218.806 154.656 203.495 152.582 188.422H154.535C158.158 188.496 161.953 188.434 165.786 188.273Z" fill="white"/>
<path d="M169.692 147.192C169.551 147.161 169.405 147.164 169.265 147.198C169.125 147.233 168.996 147.3 168.886 147.393C168.776 147.487 168.689 147.604 168.631 147.736C168.574 147.868 168.548 148.012 168.555 148.156C168.685 153.833 168.002 159.499 166.527 164.982C162.905 178.581 155.636 196.161 156.501 204.543C157.07 210.156 162.942 222.135 166.713 229.367C167.578 231.028 169.006 232.325 170.742 233.028C172.477 233.73 174.406 233.791 176.183 233.2L181.387 231.469C182.063 231.244 182.636 230.785 183.006 230.176C183.375 229.567 183.515 228.847 183.403 228.143C182.97 225.226 182.636 219.49 183.971 209.34C186.098 193.181 183.971 172.251 183.971 172.251C180.959 165.006 178.958 157.381 178.025 149.59C177.997 149.394 177.91 149.21 177.775 149.064C177.64 148.919 177.464 148.817 177.271 148.774L169.692 147.192Z" fill="#FF7700"/>
<path opacity="0.6" d="M184.824 186.456C184.824 185.01 184.725 183.625 184.664 182.327C184.664 181.894 184.664 181.461 184.602 181.091C182.97 181.375 181.251 181.622 179.496 181.832C178.943 170.68 177.816 159.564 176.121 148.527L170.446 147.377C172.359 158.966 173.598 170.656 174.155 182.389C169.828 182.747 165.365 182.957 161.001 183.044C160.42 184.898 159.864 186.753 159.344 188.496C164.29 188.409 169.433 188.199 174.427 187.779C174.563 190.697 174.687 193.75 174.786 196.964C175.33 215.669 175.305 226.994 175.144 233.484C175.504 233.423 175.859 233.336 176.207 233.225L180.571 231.778C180.695 224.954 180.67 213.976 180.163 196.804C180.065 193.441 179.941 190.264 179.805 187.235C181.523 187.025 183.217 186.79 184.849 186.518L184.824 186.456Z" fill="white"/>
<path d="M148.787 207.621C146.549 206.026 138.39 207.547 134.841 208.314C134.841 211.713 134.916 214.767 134.916 216.968C134.916 218.525 134.916 219.935 134.792 221.22C138.266 221.925 146.327 223.359 148.787 221.95C152.496 219.823 152.174 210.044 148.787 207.621Z" fill="#FF7700"/>
<path opacity="0.2" d="M148.787 207.621C146.549 206.026 138.39 207.547 134.841 208.314C134.841 211.713 134.916 214.767 134.916 216.968C134.916 218.525 134.916 219.935 134.792 221.22C138.266 221.925 146.327 223.359 148.787 221.95C152.496 219.823 152.174 210.044 148.787 207.621Z" fill="black"/>
<path d="M164.055 217.957C158.98 218.016 153.91 217.644 148.898 216.844L149.677 212.604C159.573 214.035 169.624 214.035 179.521 212.604L180.102 216.869C174.784 217.598 169.422 217.961 164.055 217.957Z" fill="#FF7700"/>
<g opacity="0.2">
<path d="M164.055 217.957C158.98 218.016 153.91 217.644 148.898 216.844L149.677 212.604C159.573 214.035 169.624 214.035 179.521 212.604L180.102 216.869C174.784 217.598 169.422 217.961 164.055 217.957Z" fill="black"/>
</g>
<path d="M184.206 207.127C181.956 206.805 179.805 206.793 178.902 207.621C176.257 210.094 176.01 219.823 178.902 221.937C180.163 222.556 181.585 222.763 182.97 222.531C182.981 218.133 183.299 213.742 183.922 209.389L184.206 207.127Z" fill="#FF7700"/>
<path opacity="0.2" d="M184.206 207.127C181.956 206.805 179.805 206.793 178.902 207.621C176.257 210.094 176.01 219.823 178.902 221.937C180.163 222.556 181.585 222.763 182.97 222.531C182.981 218.133 183.299 213.742 183.922 209.389L184.206 207.127Z" fill="black"/>
<path d="M144.076 113.256C144.076 113.256 136.535 115.531 139.403 118.572C139.403 118.572 136.634 120.859 139.317 123.047C139.317 123.047 137.796 126.979 142.197 126.756C142.197 126.756 141.987 131.404 145.35 129.797C145.35 129.797 146.24 131.528 148.07 130.131C149.899 128.734 147.649 123.95 147.649 123.95C147.649 123.95 150.864 122.553 149.8 119.598C149.8 119.598 152.619 118.362 151.173 114.653C151.173 114.653 153.509 112.613 152.706 111.179L144.076 113.256Z" fill="#263238"/>
<path d="M142 125.223C143.337 126.841 145.194 127.946 147.254 128.351C149.862 128.796 150.443 126.373 149.121 124.048C147.884 121.947 145.127 119.19 142.803 119.796C140.479 120.401 140.318 123.195 142 125.223Z" fill="#CE7A63"/>
<path d="M167.096 106.642L141.715 113.899C141.715 113.899 137.623 101.462 149.813 98.5441C161.421 95.7624 167.096 106.642 167.096 106.642Z" fill="#FF7700"/>
<path d="M151.383 105.208L141.245 108.125C141.105 108.163 140.957 108.162 140.817 108.125C140.677 108.087 140.549 108.013 140.446 107.911C140.344 107.808 140.27 107.68 140.232 107.54C140.194 107.399 140.194 107.252 140.232 107.111L140.899 104.639C140.943 104.477 141.036 104.333 141.164 104.225C141.292 104.116 141.449 104.05 141.616 104.033L151.123 103.081C151.217 103.071 151.312 103.08 151.402 103.109C151.491 103.138 151.574 103.185 151.644 103.248C151.714 103.311 151.77 103.389 151.808 103.475C151.846 103.561 151.866 103.654 151.865 103.749V104.54C151.871 104.689 151.827 104.836 151.739 104.957C151.652 105.078 151.526 105.166 151.383 105.208Z" fill="#FF7700"/>
<path opacity="0.2" d="M151.383 105.208L141.245 108.125C141.105 108.163 140.957 108.162 140.817 108.125C140.677 108.087 140.549 108.013 140.446 107.911C140.344 107.808 140.27 107.68 140.232 107.54C140.194 107.399 140.194 107.252 140.232 107.111L140.899 104.639C140.943 104.477 141.036 104.333 141.164 104.225C141.292 104.116 141.449 104.05 141.616 104.033L151.123 103.081C151.217 103.071 151.312 103.08 151.402 103.109C151.491 103.138 151.574 103.185 151.644 103.248C151.714 103.311 151.77 103.389 151.808 103.475C151.846 103.561 151.866 103.654 151.865 103.749V104.54C151.871 104.689 151.827 104.836 151.739 104.957C151.652 105.078 151.526 105.166 151.383 105.208Z" fill="white"/>
<path d="M162.93 102.525L160.259 102.933C159.684 103.031 159.093 102.898 158.615 102.562C156.665 101.134 154.363 100.265 151.956 100.047C149.549 99.8295 147.129 100.271 144.954 101.326C144.903 101.357 144.842 101.367 144.784 101.353C144.726 101.339 144.676 101.302 144.645 101.252C144.614 101.201 144.604 101.14 144.618 101.082C144.632 101.024 144.668 100.974 144.719 100.942C147.637 98.5564 154.783 94.3531 163.263 101.227C163.382 101.311 163.473 101.429 163.523 101.565C163.573 101.702 163.58 101.85 163.544 101.991C163.508 102.132 163.43 102.258 163.32 102.354C163.21 102.449 163.074 102.509 162.93 102.525Z" fill="#FF7700"/>
<path opacity="0.2" d="M162.93 102.525L160.259 102.933C159.684 103.031 159.093 102.898 158.615 102.562C156.665 101.134 154.363 100.265 151.956 100.047C149.549 99.8295 147.129 100.271 144.954 101.326C144.903 101.357 144.842 101.367 144.784 101.353C144.726 101.339 144.676 101.302 144.645 101.252C144.614 101.201 144.604 101.14 144.618 101.082C144.632 101.024 144.668 100.974 144.719 100.942C147.637 98.5564 154.783 94.3531 163.263 101.227C163.382 101.311 163.473 101.429 163.523 101.565C163.573 101.702 163.58 101.85 163.544 101.991C163.508 102.132 163.43 102.258 163.32 102.354C163.21 102.449 163.074 102.509 162.93 102.525Z" fill="white"/>
<path opacity="0.6" d="M165.897 104.8L159.715 106.283C159.582 106.318 159.44 106.307 159.313 106.254C159.186 106.2 159.079 106.106 159.011 105.987L158.541 105.171C158.493 105.082 158.466 104.982 158.462 104.881C158.458 104.78 158.478 104.679 158.52 104.587C158.562 104.495 158.625 104.413 158.704 104.349C158.782 104.286 158.875 104.241 158.974 104.219L164.401 103.094C164.932 103.633 165.432 104.202 165.897 104.8Z" fill="white"/>
<path d="M166.713 105.987C166.713 105.987 176.356 108.459 167.096 110.511C160.166 111.918 153.141 112.807 146.079 113.169L141.888 114.406C141.678 114.467 141.453 114.443 141.26 114.339C141.068 114.235 140.925 114.059 140.862 113.849V113.713C140.828 113.605 140.817 113.49 140.829 113.377C140.841 113.264 140.875 113.154 140.931 113.055C140.986 112.955 141.062 112.868 141.152 112.799C141.242 112.729 141.345 112.679 141.455 112.65L166.713 105.987Z" fill="#FF7700"/>
<path opacity="0.2" d="M166.713 105.987C166.713 105.987 176.356 108.459 167.096 110.511C160.166 111.918 153.141 112.807 146.079 113.169L141.888 114.406C141.678 114.467 141.453 114.443 141.26 114.339C141.068 114.235 140.925 114.059 140.862 113.849V113.713C140.828 113.605 140.817 113.49 140.829 113.377C140.841 113.264 140.875 113.154 140.931 113.055C140.986 112.955 141.062 112.868 141.152 112.799C141.242 112.729 141.345 112.679 141.455 112.65L166.713 105.987Z" fill="white"/>
<path d="M183.86 180.596H158.763L145.993 211.318L146.784 211.998H171.88L184.639 181.276L183.86 180.596Z" fill="#263238"/>
<path opacity="0.4" d="M183.86 180.596H158.763L145.993 211.318L146.784 211.998H171.88L184.639 181.276L183.86 180.596Z" fill="white"/>
<path d="M171.88 211.998H146.784L159.555 181.276H184.639L171.88 211.998Z" fill="#263238"/>
<path d="M177.357 180.151H167.801L166.342 183.674L166.663 183.959H176.22L177.691 180.435L177.357 180.151Z" fill="#FF7700"/>
<path opacity="0.5" d="M177.357 180.151H167.801L166.342 183.674L166.663 183.959H176.22L177.691 180.435L177.357 180.151Z" fill="white"/>
<path d="M176.22 183.959L177.691 180.435H168.134L166.663 183.959H176.22Z" fill="#FF7700"/>
<path opacity="0.2" d="M176.22 183.959L177.691 180.435H168.134L166.663 183.959H176.22Z" fill="white"/>
<path d="M144.113 196.68L152.223 193.219L150.184 203.987C150.184 203.987 142.457 205.754 141.863 201.699L144.113 196.68Z" fill="#CE7A63"/>
<path d="M159.691 196.655L155.017 205.507L150.184 204.036L152.223 193.219L159.691 196.655Z" fill="#CE7A63"/>
<path d="M124.865 190.523H112.811C112.716 192.256 112.899 193.992 113.355 195.666C113.454 196 113.565 196.334 113.701 196.692C113.863 197.119 114.057 197.532 114.282 197.929C114.681 198.652 115.171 199.321 115.741 199.919C116.663 200.893 117.746 201.7 118.943 202.305C120.712 203.197 122.603 203.821 124.556 204.16C126.189 204.459 127.841 204.641 129.501 204.704C135.721 204.872 141.936 204.215 147.983 202.75L147.315 196.408C141.752 196.175 136.211 195.58 130.725 194.628C129.497 194.382 128.283 194.069 127.09 193.688C126.236 193.392 125.409 193.024 124.617 192.588C124.611 191.895 124.673 191.204 124.803 190.523H124.865Z" fill="#CE7A63"/>
</svg>
